<svg xmlns="http://www.w3.org/2000/svg" xmlns:xlink="http://www.w3.org/1999/xlink" width="500" zoomAndPan="magnify" viewBox="0 0 375 374.999991" height="500" preserveAspectRatio="xMidYMid meet" version="1.0"><defs><g/><clipPath id="ccfcdec8d0"><path d="M 100.539062 78 L 177 78 L 177 142 L 100.539062 142 Z M 100.539062 78 " clip-rule="nonzero"/></clipPath><clipPath id="f2a8bbb2b2"><path d="M 100.539062 78 L 157 78 L 157 122 L 100.539062 122 Z M 100.539062 78 " clip-rule="nonzero"/></clipPath><clipPath id="06cc2243a0"><path d="M 104 78 L 205.539062 78 L 205.539062 196.359375 L 104 196.359375 Z M 104 78 " clip-rule="nonzero"/></clipPath></defs><rect x="-37.5" width="450" fill="#ffffff" y="-37.499999" height="449.999989" fill-opacity="1"/><rect x="-37.5" width="450" fill="#fff9f7" y="-37.499999" height="449.999989" fill-opacity="1"/><g fill="#000000" fill-opacity="1"><g transform="translate(57.774751, 226.657591)"><g><path d="M 8.015625 0.234375 C 7.429688 0.128906 7.0625 0 6.90625 -0.15625 C 6.75 -0.3125 6.644531 -0.707031 6.59375 -1.34375 C 6.539062 -2.082031 6.566406 -2.835938 6.671875 -3.609375 C 6.773438 -4.378906 6.851562 -5.109375 6.90625 -5.796875 C 7.164062 -7.859375 7.492188 -9.894531 7.890625 -11.90625 C 8.296875 -13.914062 8.734375 -15.925781 9.203125 -17.9375 C 9.785156 -20.425781 10.445312 -22.875 11.1875 -25.28125 C 11.925781 -27.6875 12.671875 -30.109375 13.421875 -32.546875 C 14.160156 -34.921875 14.875 -37.285156 15.5625 -39.640625 C 16.25 -42.003906 16.882812 -44.375 17.46875 -46.75 C 17.726562 -47.59375 17.9375 -48.453125 18.09375 -49.328125 C 18.25 -50.203125 18.382812 -51.0625 18.5 -51.90625 C 18.5 -52.125 18.507812 -52.320312 18.53125 -52.5 C 18.5625 -52.6875 18.523438 -52.890625 18.421875 -53.109375 C 18.203125 -53.160156 18 -53.117188 17.8125 -52.984375 C 17.632812 -52.847656 17.4375 -52.726562 17.21875 -52.625 C 16.425781 -52.144531 15.671875 -51.597656 14.953125 -50.984375 C 14.242188 -50.378906 13.546875 -49.707031 12.859375 -48.96875 C 10.585938 -46.539062 8.578125 -43.945312 6.828125 -41.1875 C 5.078125 -38.4375 3.648438 -35.503906 2.546875 -32.390625 C 2.171875 -31.378906 1.847656 -30.367188 1.578125 -29.359375 C 1.316406 -28.359375 1.109375 -27.328125 0.953125 -26.265625 C 0.898438 -25.640625 0.875 -24.992188 0.875 -24.328125 C 0.875 -23.671875 0.953125 -22.992188 1.109375 -22.296875 C 1.265625 -21.503906 1.554688 -20.84375 1.984375 -20.3125 C 2.515625 -19.625 3.175781 -19.3125 3.96875 -19.375 C 4.175781 -19.375 4.28125 -19.375 4.28125 -19.375 C 4.445312 -19.375 4.59375 -19.410156 4.71875 -19.484375 C 4.851562 -19.566406 4.972656 -19.5 5.078125 -19.28125 C 4.972656 -19.175781 4.835938 -19.132812 4.671875 -19.15625 C 4.515625 -19.1875 4.382812 -19.175781 4.28125 -19.125 C 3.914062 -19.125 3.625 -19.148438 3.40625 -19.203125 C 2.300781 -19.316406 1.457031 -19.847656 0.875 -20.796875 C 0.445312 -21.585938 0.179688 -22.515625 0.078125 -23.578125 C -0.0234375 -24.628906 -0.015625 -25.644531 0.109375 -26.625 C 0.242188 -27.601562 0.421875 -28.597656 0.640625 -29.609375 C 1.378906 -32.890625 2.5 -35.984375 4 -38.890625 C 5.507812 -41.804688 7.328125 -44.5625 9.453125 -47.15625 C 10.347656 -48.207031 11.269531 -49.195312 12.21875 -50.125 C 13.175781 -51.050781 14.207031 -51.9375 15.3125 -52.78125 C 15.582031 -53 15.863281 -53.1875 16.15625 -53.34375 C 16.445312 -53.5 16.722656 -53.679688 16.984375 -53.890625 C 17.515625 -54.160156 18.003906 -54.226562 18.453125 -54.09375 C 18.898438 -53.957031 19.335938 -53.757812 19.765625 -53.5 C 20.023438 -53.394531 20.15625 -53.128906 20.15625 -52.703125 C 20.207031 -52.335938 20.21875 -51.953125 20.1875 -51.546875 C 20.164062 -51.148438 20.128906 -50.742188 20.078125 -50.328125 C 20.023438 -49.472656 19.90625 -48.648438 19.71875 -47.859375 C 19.539062 -47.066406 19.34375 -46.25 19.125 -45.40625 C 18.488281 -42.8125 17.785156 -40.226562 17.015625 -37.65625 C 16.253906 -35.09375 15.476562 -32.515625 14.6875 -29.921875 C 14 -27.597656 13.3125 -25.269531 12.625 -22.9375 C 11.9375 -20.613281 11.300781 -18.257812 10.71875 -15.875 C 10.289062 -13.96875 9.878906 -12.046875 9.484375 -10.109375 C 9.085938 -8.179688 8.757812 -6.238281 8.5 -4.28125 L 8.25 -1.984375 C 8.519531 -2.140625 8.691406 -2.3125 8.765625 -2.5 C 8.847656 -2.6875 8.914062 -2.859375 8.96875 -3.015625 C 9.550781 -4.179688 10.078125 -5.359375 10.546875 -6.546875 C 11.023438 -7.734375 11.503906 -8.910156 11.984375 -10.078125 C 13.097656 -13.046875 14.25 -16 15.4375 -18.9375 C 16.625 -21.875 17.828125 -24.796875 19.046875 -27.703125 C 19.679688 -29.335938 20.34375 -30.945312 21.03125 -32.53125 C 21.71875 -34.125 22.429688 -35.71875 23.171875 -37.3125 C 24.078125 -39.101562 24.992188 -40.859375 25.921875 -42.578125 C 26.847656 -44.304688 27.890625 -45.960938 29.046875 -47.546875 C 29.523438 -48.234375 30.015625 -48.894531 30.515625 -49.53125 C 31.023438 -50.164062 31.539062 -50.773438 32.0625 -51.359375 C 32.4375 -51.773438 32.890625 -52.171875 33.421875 -52.546875 C 33.734375 -52.804688 34.15625 -52.859375 34.6875 -52.703125 C 35.375 -52.492188 35.8125 -52.21875 36 -51.875 C 36.1875 -51.53125 36.222656 -50.988281 36.109375 -50.25 C 36.003906 -49.613281 35.875 -48.960938 35.71875 -48.296875 C 35.5625 -47.640625 35.40625 -46.992188 35.25 -46.359375 C 34.71875 -44.296875 34.132812 -42.257812 33.5 -40.25 C 32.863281 -38.238281 32.203125 -36.222656 31.515625 -34.203125 C 30.878906 -32.359375 30.242188 -30.492188 29.609375 -28.609375 C 28.972656 -26.734375 28.363281 -24.84375 27.78125 -22.9375 C 27.09375 -20.820312 26.507812 -18.675781 26.03125 -16.5 C 25.5625 -14.332031 25.140625 -12.164062 24.765625 -10 C 24.710938 -9.84375 24.6875 -9.679688 24.6875 -9.515625 C 24.6875 -9.359375 24.660156 -9.203125 24.609375 -9.046875 C 24.609375 -8.835938 24.582031 -8.648438 24.53125 -8.484375 C 24.476562 -8.328125 24.53125 -8.144531 24.6875 -7.9375 C 24.894531 -8.039062 25.035156 -8.1875 25.109375 -8.375 C 25.191406 -8.5625 25.265625 -8.734375 25.328125 -8.890625 C 26.015625 -10.210938 26.660156 -11.5625 27.265625 -12.9375 C 27.867188 -14.3125 28.460938 -15.6875 29.046875 -17.0625 C 29.734375 -18.601562 30.394531 -20.140625 31.03125 -21.671875 C 31.664062 -23.203125 32.328125 -24.707031 33.015625 -26.1875 C 33.867188 -28.039062 34.847656 -29.84375 35.953125 -31.59375 C 36.222656 -32.007812 36.503906 -32.414062 36.796875 -32.8125 C 37.085938 -33.21875 37.390625 -33.601562 37.703125 -33.96875 L 38.265625 -34.53125 C 38.734375 -35.007812 39.097656 -35.257812 39.359375 -35.28125 C 39.628906 -35.3125 40.109375 -35.191406 40.796875 -34.921875 C 41.066406 -34.765625 41.253906 -34.5 41.359375 -34.125 C 41.515625 -33.488281 41.566406 -32.9375 41.515625 -32.46875 L 40.796875 -26.828125 C 40.742188 -25.828125 40.703125 -24.835938 40.671875 -23.859375 C 40.648438 -22.878906 40.742188 -21.910156 40.953125 -20.953125 C 41.003906 -20.210938 41.269531 -19.472656 41.75 -18.734375 C 42.382812 -17.722656 43.285156 -17.191406 44.453125 -17.140625 C 45.191406 -17.140625 45.878906 -17.242188 46.515625 -17.453125 C 47.148438 -17.671875 47.757812 -17.960938 48.34375 -18.328125 C 49.613281 -19.179688 50.851562 -20.242188 52.0625 -21.515625 C 53.382812 -22.835938 54.628906 -24.160156 55.796875 -25.484375 C 55.898438 -25.585938 55.976562 -25.664062 56.03125 -25.71875 C 56.09375 -25.769531 56.148438 -25.820312 56.203125 -25.875 C 56.671875 -26.351562 57.117188 -26.378906 57.546875 -25.953125 C 57.597656 -25.898438 57.597656 -25.796875 57.546875 -25.640625 C 57.335938 -25.429688 57.207031 -25.269531 57.15625 -25.15625 L 53.5 -21.1875 C 52.4375 -20.03125 51.21875 -18.945312 49.84375 -17.9375 C 47.882812 -16.5625 45.820312 -16.21875 43.65625 -16.90625 L 42.703125 -17.140625 C 41.273438 -17.617188 40.269531 -18.625 39.6875 -20.15625 C 39.425781 -20.957031 39.296875 -21.726562 39.296875 -22.46875 C 39.242188 -23.3125 39.226562 -24.140625 39.25 -24.953125 C 39.28125 -25.773438 39.320312 -26.613281 39.375 -27.46875 C 39.476562 -28.363281 39.59375 -29.25 39.71875 -30.125 C 39.851562 -31 39.945312 -31.859375 40 -32.703125 C 40.050781 -32.960938 40.078125 -33.195312 40.078125 -33.40625 C 40.078125 -33.625 40.078125 -33.835938 40.078125 -34.046875 C 40.078125 -34.097656 40.023438 -34.179688 39.921875 -34.296875 C 39.867188 -34.296875 39.816406 -34.28125 39.765625 -34.25 C 39.710938 -34.21875 39.660156 -34.203125 39.609375 -34.203125 C 38.972656 -33.679688 38.414062 -33.050781 37.9375 -32.3125 C 37.25 -31.300781 36.597656 -30.265625 35.984375 -29.203125 C 35.378906 -28.148438 34.785156 -27.066406 34.203125 -25.953125 C 33.460938 -24.316406 32.75 -22.664062 32.0625 -21 C 31.375 -19.332031 30.660156 -17.648438 29.921875 -15.953125 C 29.285156 -14.472656 28.648438 -13.003906 28.015625 -11.546875 C 27.378906 -10.085938 26.691406 -8.671875 25.953125 -7.296875 C 25.796875 -7.035156 25.648438 -6.785156 25.515625 -6.546875 C 25.390625 -6.304688 25.242188 -6.054688 25.078125 -5.796875 C 24.867188 -5.523438 24.550781 -5.421875 24.125 -5.484375 C 23.539062 -5.585938 23.171875 -5.71875 23.015625 -5.875 C 22.859375 -6.03125 22.78125 -6.425781 22.78125 -7.0625 C 22.78125 -7.90625 22.84375 -8.738281 22.96875 -9.5625 C 23.101562 -10.382812 23.226562 -11.21875 23.34375 -12.0625 C 23.8125 -15.03125 24.457031 -17.925781 25.28125 -20.75 C 26.101562 -23.582031 26.960938 -26.375 27.859375 -29.125 C 28.597656 -31.300781 29.320312 -33.445312 30.03125 -35.5625 C 30.75 -37.675781 31.453125 -39.789062 32.140625 -41.90625 C 33.148438 -44.707031 33.972656 -47.695312 34.609375 -50.875 C 34.609375 -51.144531 34.632812 -51.359375 34.6875 -51.515625 C 34.6875 -51.617188 34.644531 -51.679688 34.5625 -51.703125 C 34.488281 -51.734375 34.425781 -51.722656 34.375 -51.671875 C 34.15625 -51.566406 33.96875 -51.429688 33.8125 -51.265625 C 33.65625 -51.109375 33.5 -50.953125 33.34375 -50.796875 C 31.800781 -49.210938 30.367188 -47.414062 29.046875 -45.40625 C 27.941406 -43.707031 26.925781 -41.972656 26 -40.203125 C 25.070312 -38.429688 24.15625 -36.617188 23.25 -34.765625 C 22.195312 -32.328125 21.164062 -29.90625 20.15625 -27.5 C 19.15625 -25.09375 18.175781 -22.644531 17.21875 -20.15625 C 16.269531 -17.882812 15.34375 -15.570312 14.4375 -13.21875 C 13.539062 -10.863281 12.644531 -8.519531 11.75 -6.1875 C 11.425781 -5.34375 11.09375 -4.523438 10.75 -3.734375 C 10.40625 -2.941406 10.050781 -2.144531 9.6875 -1.34375 L 8.96875 -0.15625 C 8.707031 0.15625 8.390625 0.285156 8.015625 0.234375 Z M 8.015625 0.234375 "/></g></g></g><g fill="#000000" fill-opacity="1"><g transform="translate(113.024272, 226.657591)"><g><path d="M 11.109375 -19.453125 C 10.578125 -19.078125 10.070312 -18.941406 9.59375 -19.046875 C 9.125 -19.148438 8.648438 -19.363281 8.171875 -19.6875 C 7.960938 -19.789062 7.78125 -20.082031 7.625 -20.5625 C 7.519531 -20.976562 7.46875 -21.410156 7.46875 -21.859375 C 7.46875 -22.316406 7.492188 -22.78125 7.546875 -23.25 C 7.703125 -24.207031 7.910156 -25.148438 8.171875 -26.078125 C 8.441406 -27.003906 8.757812 -27.914062 9.125 -28.8125 C 9.175781 -28.96875 9.242188 -29.125 9.328125 -29.28125 C 9.410156 -29.445312 9.394531 -29.609375 9.28125 -29.765625 C 9.125 -29.765625 9.019531 -29.710938 8.96875 -29.609375 C 8.914062 -29.503906 8.835938 -29.398438 8.734375 -29.296875 L 4.359375 -23.96875 C 4.097656 -23.65625 3.804688 -23.335938 3.484375 -23.015625 C 3.171875 -22.703125 2.882812 -22.382812 2.625 -22.0625 C 2.570312 -22.007812 2.488281 -21.957031 2.375 -21.90625 C 2.269531 -21.851562 2.164062 -21.773438 2.0625 -21.671875 C 1.375 -21.191406 0.765625 -21.242188 0.234375 -21.828125 C 0.078125 -21.984375 0 -22.171875 0 -22.390625 L 0.234375 -23.5 C 0.972656 -25.507812 2.0625 -27.226562 3.5 -28.65625 C 3.757812 -28.914062 4.046875 -29.128906 4.359375 -29.296875 C 4.785156 -29.660156 5.367188 -29.738281 6.109375 -29.53125 L 6.515625 -29.375 C 6.929688 -29.15625 7.207031 -29.085938 7.34375 -29.171875 C 7.476562 -29.253906 7.675781 -29.453125 7.9375 -29.765625 L 10.234375 -32.625 C 10.285156 -32.726562 10.394531 -32.859375 10.5625 -33.015625 C 10.875 -33.335938 11.21875 -33.390625 11.59375 -33.171875 C 11.851562 -33.015625 11.957031 -32.804688 11.90625 -32.546875 C 11.851562 -32.328125 11.800781 -32.125 11.75 -31.9375 C 11.695312 -31.757812 11.617188 -31.566406 11.515625 -31.359375 C 11.140625 -30.347656 10.765625 -29.363281 10.390625 -28.40625 C 10.023438 -27.457031 9.710938 -26.457031 9.453125 -25.40625 C 9.234375 -24.71875 9.054688 -24.039062 8.921875 -23.375 C 8.796875 -22.71875 8.757812 -22.015625 8.8125 -21.265625 C 8.8125 -21.054688 8.820312 -20.859375 8.84375 -20.671875 C 8.875 -20.492188 8.914062 -20.296875 8.96875 -20.078125 C 9.070312 -19.867188 9.234375 -19.789062 9.453125 -19.84375 C 9.710938 -19.894531 9.945312 -19.972656 10.15625 -20.078125 C 10.375 -20.179688 10.585938 -20.289062 10.796875 -20.40625 C 11.847656 -21.09375 12.828125 -21.882812 13.734375 -22.78125 C 14.148438 -23.207031 14.570312 -23.644531 15 -24.09375 C 15.425781 -24.539062 15.820312 -24.976562 16.1875 -25.40625 C 16.351562 -25.507812 16.5 -25.625 16.625 -25.75 C 16.757812 -25.882812 16.878906 -26.003906 16.984375 -26.109375 C 17.253906 -26.378906 17.519531 -26.429688 17.78125 -26.265625 C 18.144531 -26.109375 18.171875 -25.898438 17.859375 -25.640625 C 17.222656 -24.953125 16.585938 -24.265625 15.953125 -23.578125 C 15.316406 -22.890625 14.65625 -22.226562 13.96875 -21.59375 C 13.601562 -21.269531 13.257812 -20.960938 12.9375 -20.671875 C 12.625 -20.378906 12.253906 -20.101562 11.828125 -19.84375 Z M 1.515625 -22.546875 C 1.773438 -22.648438 1.984375 -22.789062 2.140625 -22.96875 C 2.296875 -23.15625 2.457031 -23.332031 2.625 -23.5 C 3.363281 -24.289062 4.0625 -25.09375 4.71875 -25.90625 C 5.382812 -26.726562 6.0625 -27.539062 6.75 -28.34375 C 7.007812 -28.707031 6.898438 -28.96875 6.421875 -29.125 C 6.109375 -29.175781 5.820312 -29.125 5.5625 -28.96875 C 5.34375 -28.914062 5.128906 -28.796875 4.921875 -28.609375 C 4.710938 -28.429688 4.523438 -28.257812 4.359375 -28.09375 C 3.148438 -26.664062 2.171875 -25 1.421875 -23.09375 C 1.316406 -22.9375 1.347656 -22.753906 1.515625 -22.546875 Z M 1.515625 -22.546875 "/></g></g></g><g fill="#000000" fill-opacity="1"><g transform="translate(128.741808, 226.657591)"><g><path d="M 4.53125 -13.09375 C 4.363281 -13.195312 4.226562 -13.4375 4.125 -13.8125 C 3.96875 -14.601562 3.96875 -15.421875 4.125 -16.265625 C 4.28125 -17.328125 4.503906 -18.382812 4.796875 -19.4375 C 5.085938 -20.5 5.421875 -21.535156 5.796875 -22.546875 L 7.703125 -27.703125 C 7.753906 -27.804688 7.804688 -27.894531 7.859375 -27.96875 C 7.910156 -28.050781 7.910156 -28.203125 7.859375 -28.421875 C 7.648438 -28.367188 7.460938 -28.300781 7.296875 -28.21875 C 7.140625 -28.132812 6.984375 -28.039062 6.828125 -27.9375 C 6.242188 -27.675781 5.644531 -27.398438 5.03125 -27.109375 C 4.425781 -26.816406 3.804688 -26.535156 3.171875 -26.265625 C 2.960938 -26.210938 2.710938 -26.109375 2.421875 -25.953125 C 2.128906 -25.796875 1.769531 -25.820312 1.34375 -26.03125 C 1.132812 -26.1875 0.925781 -26.296875 0.71875 -26.359375 C 0.132812 -26.671875 -0.101562 -27.144531 0 -27.78125 L 0.234375 -29.203125 C 0.816406 -31.535156 1.640625 -33.679688 2.703125 -35.640625 C 2.960938 -36.003906 3.195312 -36.359375 3.40625 -36.703125 C 3.625 -37.054688 3.890625 -37.363281 4.203125 -37.625 C 4.679688 -37.988281 5.1875 -38.015625 5.71875 -37.703125 C 6.300781 -37.328125 6.59375 -36.742188 6.59375 -35.953125 C 6.539062 -35.640625 6.484375 -35.335938 6.421875 -35.046875 C 6.367188 -34.753906 6.289062 -34.445312 6.1875 -34.125 C 5.976562 -33.382812 5.726562 -32.65625 5.4375 -31.9375 C 5.144531 -31.226562 4.84375 -30.53125 4.53125 -29.84375 C 4.414062 -29.582031 4.28125 -29.304688 4.125 -29.015625 C 3.96875 -28.722656 3.835938 -28.441406 3.734375 -28.171875 C 3.734375 -28.117188 3.71875 -28.066406 3.6875 -28.015625 C 3.664062 -27.960938 3.679688 -27.910156 3.734375 -27.859375 L 4.046875 -27.859375 C 4.578125 -28.117188 5.09375 -28.367188 5.59375 -28.609375 C 6.09375 -28.847656 6.582031 -29.078125 7.0625 -29.296875 L 8.09375 -29.765625 C 8.363281 -29.921875 8.601562 -29.921875 8.8125 -29.765625 C 9.175781 -29.554688 9.4375 -29.382812 9.59375 -29.25 C 9.757812 -29.113281 9.738281 -28.726562 9.53125 -28.09375 C 9.3125 -27.507812 9.097656 -26.914062 8.890625 -26.3125 C 8.679688 -25.707031 8.441406 -25.113281 8.171875 -24.53125 C 7.703125 -23.207031 7.265625 -21.867188 6.859375 -20.515625 C 6.460938 -19.171875 6.132812 -17.8125 5.875 -16.4375 C 5.820312 -16.113281 5.769531 -15.78125 5.71875 -15.4375 C 5.664062 -15.09375 5.613281 -14.734375 5.5625 -14.359375 C 5.5625 -14.203125 5.613281 -14.097656 5.71875 -14.046875 C 5.769531 -13.992188 5.898438 -14.019531 6.109375 -14.125 L 7.140625 -15.15625 C 7.878906 -15.945312 8.59375 -16.78125 9.28125 -17.65625 C 9.96875 -18.53125 10.65625 -19.390625 11.34375 -20.234375 C 11.976562 -21.085938 12.707031 -22.03125 13.53125 -23.0625 C 14.351562 -24.09375 15.082031 -25.003906 15.71875 -25.796875 L 16.1875 -26.359375 C 16.457031 -26.617188 16.75 -26.671875 17.0625 -26.515625 C 17.382812 -26.410156 17.4375 -26.195312 17.21875 -25.875 C 17.113281 -25.664062 17.007812 -25.507812 16.90625 -25.40625 L 9.765625 -16.1875 C 9.441406 -15.820312 9.117188 -15.453125 8.796875 -15.078125 C 8.484375 -14.710938 8.144531 -14.316406 7.78125 -13.890625 C 7.726562 -13.785156 7.644531 -13.679688 7.53125 -13.578125 C 7.425781 -13.472656 7.320312 -13.363281 7.21875 -13.25 C 6.632812 -12.726562 6.222656 -12.476562 5.984375 -12.5 C 5.753906 -12.53125 5.269531 -12.726562 4.53125 -13.09375 Z M 1.421875 -26.984375 C 1.535156 -26.929688 1.75 -26.957031 2.0625 -27.0625 C 2.269531 -27.113281 2.429688 -27.328125 2.546875 -27.703125 C 3.234375 -29.128906 3.835938 -30.503906 4.359375 -31.828125 C 4.523438 -32.253906 4.671875 -32.664062 4.796875 -33.0625 C 4.929688 -33.457031 5.050781 -33.835938 5.15625 -34.203125 C 5.425781 -35.003906 5.5625 -35.695312 5.5625 -36.28125 C 5.5625 -36.539062 5.5625 -36.671875 5.5625 -36.671875 C 5.5625 -36.828125 5.503906 -36.929688 5.390625 -36.984375 C 5.335938 -37.035156 5.285156 -37.035156 5.234375 -36.984375 C 5.179688 -36.929688 5.101562 -36.878906 5 -36.828125 C 4.519531 -36.347656 4.125 -35.789062 3.8125 -35.15625 C 2.488281 -32.726562 1.640625 -30.191406 1.265625 -27.546875 C 1.265625 -27.492188 1.265625 -27.410156 1.265625 -27.296875 C 1.265625 -27.191406 1.316406 -27.085938 1.421875 -26.984375 Z M 1.421875 -26.984375 "/></g></g></g><g fill="#000000" fill-opacity="1"><g transform="translate(143.74491, 226.657591)"><g><path d="M 5 -32.9375 C 4.570312 -33.09375 4.359375 -33.359375 4.359375 -33.734375 C 4.523438 -34.265625 4.738281 -34.6875 5 -35 C 5.101562 -35.21875 5.289062 -35.269531 5.5625 -35.15625 C 5.613281 -35.15625 5.691406 -35.101562 5.796875 -35 C 5.742188 -34.945312 5.71875 -34.867188 5.71875 -34.765625 C 5.445312 -34.503906 5.394531 -34.238281 5.5625 -33.96875 C 5.664062 -33.8125 5.664062 -33.65625 5.5625 -33.5 C 5.507812 -33.125 5.320312 -32.9375 5 -32.9375 Z M 4.28125 -19.375 C 3.539062 -19.101562 2.722656 -19.179688 1.828125 -19.609375 C 1.347656 -19.867188 1.054688 -20.289062 0.953125 -20.875 L 0.796875 -21.984375 C 0.953125 -24.148438 1.503906 -26.1875 2.453125 -28.09375 C 2.671875 -28.414062 2.859375 -28.65625 3.015625 -28.8125 C 3.117188 -28.914062 3.265625 -28.941406 3.453125 -28.890625 C 3.640625 -28.835938 3.757812 -28.757812 3.8125 -28.65625 C 3.8125 -28.601562 3.820312 -28.550781 3.84375 -28.5 C 3.875 -28.445312 3.863281 -28.394531 3.8125 -28.34375 C 3.175781 -27.332031 2.75 -26.285156 2.53125 -25.203125 C 2.320312 -24.117188 2.164062 -23.019531 2.0625 -21.90625 C 1.957031 -21.269531 1.984375 -20.710938 2.140625 -20.234375 C 2.296875 -19.972656 2.507812 -19.84375 2.78125 -19.84375 C 3.039062 -19.84375 3.289062 -19.894531 3.53125 -20 C 3.769531 -20.101562 3.992188 -20.179688 4.203125 -20.234375 C 4.679688 -20.503906 5.15625 -20.785156 5.625 -21.078125 C 6.101562 -21.367188 6.582031 -21.671875 7.0625 -21.984375 C 7.957031 -22.671875 8.851562 -23.367188 9.75 -24.078125 C 10.65625 -24.796875 11.5625 -25.5 12.46875 -26.1875 C 12.625 -26.351562 12.753906 -26.460938 12.859375 -26.515625 C 13.171875 -26.828125 13.539062 -26.800781 13.96875 -26.4375 C 14.019531 -26.4375 14.054688 -26.40625 14.078125 -26.34375 C 14.109375 -26.289062 14.097656 -26.238281 14.046875 -26.1875 L 13.734375 -25.875 C 12.566406 -24.875 11.375 -23.910156 10.15625 -22.984375 C 8.9375 -22.054688 7.664062 -21.195312 6.34375 -20.40625 C 6.03125 -20.1875 5.703125 -19.984375 5.359375 -19.796875 C 5.015625 -19.617188 4.65625 -19.476562 4.28125 -19.375 Z M 4.28125 -19.375 "/></g></g></g><g fill="#000000" fill-opacity="1"><g transform="translate(155.413988, 226.657591)"><g><path d="M 11.109375 -19.453125 C 10.578125 -19.078125 10.070312 -18.941406 9.59375 -19.046875 C 9.125 -19.148438 8.648438 -19.363281 8.171875 -19.6875 C 7.960938 -19.789062 7.78125 -20.082031 7.625 -20.5625 C 7.519531 -20.976562 7.46875 -21.410156 7.46875 -21.859375 C 7.46875 -22.316406 7.492188 -22.78125 7.546875 -23.25 C 7.703125 -24.207031 7.910156 -25.148438 8.171875 -26.078125 C 8.441406 -27.003906 8.757812 -27.914062 9.125 -28.8125 C 9.175781 -28.96875 9.242188 -29.125 9.328125 -29.28125 C 9.410156 -29.445312 9.394531 -29.609375 9.28125 -29.765625 C 9.125 -29.765625 9.019531 -29.710938 8.96875 -29.609375 C 8.914062 -29.503906 8.835938 -29.398438 8.734375 -29.296875 L 4.359375 -23.96875 C 4.097656 -23.65625 3.804688 -23.335938 3.484375 -23.015625 C 3.171875 -22.703125 2.882812 -22.382812 2.625 -22.0625 C 2.570312 -22.007812 2.488281 -21.957031 2.375 -21.90625 C 2.269531 -21.851562 2.164062 -21.773438 2.0625 -21.671875 C 1.375 -21.191406 0.765625 -21.242188 0.234375 -21.828125 C 0.078125 -21.984375 0 -22.171875 0 -22.390625 L 0.234375 -23.5 C 0.972656 -25.507812 2.0625 -27.226562 3.5 -28.65625 C 3.757812 -28.914062 4.046875 -29.128906 4.359375 -29.296875 C 4.785156 -29.660156 5.367188 -29.738281 6.109375 -29.53125 L 6.515625 -29.375 C 6.929688 -29.15625 7.207031 -29.085938 7.34375 -29.171875 C 7.476562 -29.253906 7.675781 -29.453125 7.9375 -29.765625 L 10.234375 -32.625 C 10.285156 -32.726562 10.394531 -32.859375 10.5625 -33.015625 C 10.875 -33.335938 11.21875 -33.390625 11.59375 -33.171875 C 11.851562 -33.015625 11.957031 -32.804688 11.90625 -32.546875 C 11.851562 -32.328125 11.800781 -32.125 11.75 -31.9375 C 11.695312 -31.757812 11.617188 -31.566406 11.515625 -31.359375 C 11.140625 -30.347656 10.765625 -29.363281 10.390625 -28.40625 C 10.023438 -27.457031 9.710938 -26.457031 9.453125 -25.40625 C 9.234375 -24.71875 9.054688 -24.039062 8.921875 -23.375 C 8.796875 -22.71875 8.757812 -22.015625 8.8125 -21.265625 C 8.8125 -21.054688 8.820312 -20.859375 8.84375 -20.671875 C 8.875 -20.492188 8.914062 -20.296875 8.96875 -20.078125 C 9.070312 -19.867188 9.234375 -19.789062 9.453125 -19.84375 C 9.710938 -19.894531 9.945312 -19.972656 10.15625 -20.078125 C 10.375 -20.179688 10.585938 -20.289062 10.796875 -20.40625 C 11.847656 -21.09375 12.828125 -21.882812 13.734375 -22.78125 C 14.148438 -23.207031 14.570312 -23.644531 15 -24.09375 C 15.425781 -24.539062 15.820312 -24.976562 16.1875 -25.40625 C 16.351562 -25.507812 16.5 -25.625 16.625 -25.75 C 16.757812 -25.882812 16.878906 -26.003906 16.984375 -26.109375 C 17.253906 -26.378906 17.519531 -26.429688 17.78125 -26.265625 C 18.144531 -26.109375 18.171875 -25.898438 17.859375 -25.640625 C 17.222656 -24.953125 16.585938 -24.265625 15.953125 -23.578125 C 15.316406 -22.890625 14.65625 -22.226562 13.96875 -21.59375 C 13.601562 -21.269531 13.257812 -20.960938 12.9375 -20.671875 C 12.625 -20.378906 12.253906 -20.101562 11.828125 -19.84375 Z M 1.515625 -22.546875 C 1.773438 -22.648438 1.984375 -22.789062 2.140625 -22.96875 C 2.296875 -23.15625 2.457031 -23.332031 2.625 -23.5 C 3.363281 -24.289062 4.0625 -25.09375 4.71875 -25.90625 C 5.382812 -26.726562 6.0625 -27.539062 6.75 -28.34375 C 7.007812 -28.707031 6.898438 -28.96875 6.421875 -29.125 C 6.109375 -29.175781 5.820312 -29.125 5.5625 -28.96875 C 5.34375 -28.914062 5.128906 -28.796875 4.921875 -28.609375 C 4.710938 -28.429688 4.523438 -28.257812 4.359375 -28.09375 C 3.148438 -26.664062 2.171875 -25 1.421875 -23.09375 C 1.316406 -22.9375 1.347656 -22.753906 1.515625 -22.546875 Z M 1.515625 -22.546875 "/></g></g></g><g fill="#000000" fill-opacity="1"><g transform="translate(171.131524, 226.657591)"><g/></g></g><g fill="#000000" fill-opacity="1"><g transform="translate(187.007829, 226.657591)"><g><path d="M 58.109375 -26.265625 C 58.160156 -26.109375 58.078125 -25.976562 57.859375 -25.875 L 56.75 -25.234375 C 54.894531 -24.441406 53.132812 -23.503906 51.46875 -22.421875 C 49.800781 -21.335938 48.175781 -20.1875 46.59375 -18.96875 C 45.0625 -17.800781 43.523438 -16.625 41.984375 -15.4375 C 40.453125 -14.25 38.921875 -13.046875 37.390625 -11.828125 C 36.960938 -11.453125 36.523438 -11.101562 36.078125 -10.78125 C 35.628906 -10.46875 35.164062 -10.128906 34.6875 -9.765625 C 34.476562 -9.609375 34.289062 -9.410156 34.125 -9.171875 C 33.96875 -8.929688 33.835938 -8.675781 33.734375 -8.40625 L 31.359375 -1.90625 C 30.828125 -0.53125 30.226562 0.828125 29.5625 2.171875 C 28.90625 3.523438 28.207031 4.863281 27.46875 6.1875 C 26.726562 7.40625 25.894531 8.53125 24.96875 9.5625 C 24.039062 10.59375 22.992188 11.503906 21.828125 12.296875 C 21.242188 12.722656 20.632812 13.082031 20 13.375 C 19.363281 13.664062 18.703125 13.914062 18.015625 14.125 C 17.484375 14.226562 16.953125 14.226562 16.421875 14.125 C 15.898438 14.019531 15.398438 13.863281 14.921875 13.65625 C 14.390625 13.382812 14.125 12.957031 14.125 12.375 C 14.070312 12.113281 14.054688 11.875 14.078125 11.65625 C 14.109375 11.445312 14.148438 11.238281 14.203125 11.03125 C 14.472656 10.082031 14.84375 9.179688 15.3125 8.328125 C 16.800781 5.796875 18.550781 3.390625 20.5625 1.109375 C 21.9375 -0.472656 23.40625 -1.992188 24.96875 -3.453125 C 26.53125 -4.910156 28.128906 -6.328125 29.765625 -7.703125 C 30.140625 -8.015625 30.507812 -8.328125 30.875 -8.640625 C 31.25 -8.960938 31.617188 -9.257812 31.984375 -9.53125 C 32.359375 -9.789062 32.625 -10.1875 32.78125 -10.71875 C 33.363281 -12.519531 33.929688 -14.34375 34.484375 -16.1875 C 35.046875 -18.039062 35.585938 -19.867188 36.109375 -21.671875 C 36.328125 -22.460938 36.566406 -23.253906 36.828125 -24.046875 C 37.097656 -24.835938 37.335938 -25.632812 37.546875 -26.4375 C 37.597656 -26.59375 37.648438 -26.734375 37.703125 -26.859375 C 37.753906 -26.992188 37.753906 -27.144531 37.703125 -27.3125 C 37.492188 -27.3125 37.332031 -27.226562 37.21875 -27.0625 C 37.113281 -26.90625 37.007812 -26.773438 36.90625 -26.671875 C 35.957031 -25.660156 34.992188 -24.640625 34.015625 -23.609375 C 33.035156 -22.578125 32.015625 -21.585938 30.953125 -20.640625 C 30.109375 -19.847656 29.207031 -19.066406 28.25 -18.296875 C 27.300781 -17.523438 26.328125 -16.796875 25.328125 -16.109375 C 24.316406 -15.421875 23.269531 -14.785156 22.1875 -14.203125 C 21.101562 -13.617188 20.003906 -13.09375 18.890625 -12.625 C 18.460938 -12.457031 18.007812 -12.304688 17.53125 -12.171875 C 17.0625 -12.046875 16.585938 -11.984375 16.109375 -11.984375 C 14.734375 -11.984375 13.460938 -12.488281 12.296875 -13.5 C 12.085938 -13.707031 11.890625 -13.941406 11.703125 -14.203125 C 11.523438 -14.472656 11.378906 -14.738281 11.265625 -15 C 11.003906 -15.789062 10.875 -16.53125 10.875 -17.21875 C 10.820312 -18.4375 10.820312 -19.613281 10.875 -20.75 C 10.925781 -21.894531 11.03125 -23.046875 11.1875 -24.203125 C 11.664062 -27.960938 12.367188 -31.640625 13.296875 -35.234375 C 14.222656 -38.835938 15.269531 -42.410156 16.4375 -45.953125 L 18.328125 -51.828125 C 18.390625 -51.929688 18.421875 -52.050781 18.421875 -52.1875 C 18.421875 -52.320312 18.445312 -52.441406 18.5 -52.546875 L 18.5 -52.703125 C 18.445312 -52.703125 18.40625 -52.703125 18.375 -52.703125 C 18.34375 -52.703125 18.300781 -52.703125 18.25 -52.703125 L 17.703125 -52.234375 C 14.898438 -49.742188 12.375 -47.03125 10.125 -44.09375 C 7.875 -41.15625 5.898438 -37.992188 4.203125 -34.609375 C 3.617188 -33.441406 3.078125 -32.234375 2.578125 -30.984375 C 2.078125 -29.742188 1.691406 -28.460938 1.421875 -27.140625 C 1.210938 -26.035156 1.054688 -24.925781 0.953125 -23.8125 C 0.847656 -22.644531 0.953125 -21.585938 1.265625 -20.640625 C 1.316406 -20.316406 1.453125 -20.023438 1.671875 -19.765625 C 2.191406 -18.648438 2.984375 -18.171875 4.046875 -18.328125 C 4.203125 -18.328125 4.304688 -18.300781 4.359375 -18.25 C 4.359375 -18.25 4.367188 -18.25 4.390625 -18.25 C 4.421875 -18.25 4.4375 -18.222656 4.4375 -18.171875 C 4.4375 -18.066406 4.359375 -18.015625 4.203125 -18.015625 C 2.722656 -17.960938 1.613281 -18.570312 0.875 -19.84375 C 0.601562 -20.269531 0.398438 -20.707031 0.265625 -21.15625 C 0.140625 -21.601562 0.0507812 -22.066406 0 -22.546875 C -0.0507812 -23.867188 0.0078125 -25.164062 0.1875 -26.4375 C 0.375 -27.707031 0.65625 -28.945312 1.03125 -30.15625 C 1.5625 -31.75 2.171875 -33.296875 2.859375 -34.796875 C 3.546875 -36.304688 4.3125 -37.804688 5.15625 -39.296875 C 7.695312 -43.734375 10.796875 -47.703125 14.453125 -51.203125 C 15.554688 -52.304688 16.691406 -53.363281 17.859375 -54.375 C 18.390625 -54.851562 18.757812 -55.09375 18.96875 -55.09375 C 19.175781 -55.09375 19.570312 -54.878906 20.15625 -54.453125 C 20.425781 -54.347656 20.5625 -54.109375 20.5625 -53.734375 C 20.507812 -53.523438 20.46875 -53.300781 20.4375 -53.0625 C 20.414062 -52.820312 20.347656 -52.597656 20.234375 -52.390625 C 20.023438 -51.648438 19.8125 -50.921875 19.59375 -50.203125 C 19.382812 -49.492188 19.148438 -48.765625 18.890625 -48.015625 C 18.097656 -45.585938 17.332031 -43.164062 16.59375 -40.75 C 15.851562 -38.34375 15.191406 -35.898438 14.609375 -33.421875 C 14.179688 -31.566406 13.796875 -29.6875 13.453125 -27.78125 C 13.109375 -25.875 12.832031 -23.992188 12.625 -22.140625 C 12.40625 -20.398438 12.320312 -18.707031 12.375 -17.0625 C 12.4375 -16.695312 12.492188 -16.328125 12.546875 -15.953125 C 12.597656 -15.585938 12.675781 -15.191406 12.78125 -14.765625 C 12.832031 -14.554688 12.910156 -14.359375 13.015625 -14.171875 C 13.117188 -13.984375 13.222656 -13.785156 13.328125 -13.578125 C 13.703125 -13.046875 14.234375 -12.78125 14.921875 -12.78125 C 15.398438 -12.832031 15.863281 -12.910156 16.3125 -13.015625 C 16.757812 -13.117188 17.222656 -13.253906 17.703125 -13.421875 C 19.179688 -13.941406 20.59375 -14.585938 21.9375 -15.359375 C 23.289062 -16.128906 24.601562 -17.015625 25.875 -18.015625 C 27.832031 -19.546875 29.695312 -21.160156 31.46875 -22.859375 C 33.238281 -24.554688 34.945312 -26.328125 36.59375 -28.171875 C 36.90625 -28.597656 37.207031 -28.984375 37.5 -29.328125 C 37.789062 -29.671875 38.125 -30.03125 38.5 -30.40625 C 38.914062 -30.988281 39.234375 -31.539062 39.453125 -32.0625 C 39.867188 -33.332031 40.289062 -34.578125 40.71875 -35.796875 C 41.144531 -37.015625 41.59375 -38.234375 42.0625 -39.453125 C 42.488281 -40.503906 42.953125 -41.519531 43.453125 -42.5 C 43.960938 -43.476562 44.503906 -44.445312 45.078125 -45.40625 C 45.609375 -46.300781 46.300781 -47.171875 47.15625 -48.015625 C 47.257812 -48.128906 47.363281 -48.238281 47.46875 -48.34375 C 47.570312 -48.445312 47.675781 -48.550781 47.78125 -48.65625 C 48.363281 -49.082031 48.785156 -49.269531 49.046875 -49.21875 C 49.316406 -49.164062 49.71875 -48.925781 50.25 -48.5 C 50.457031 -48.34375 50.5625 -48.128906 50.5625 -47.859375 C 50.5625 -47.328125 50.484375 -46.828125 50.328125 -46.359375 C 50.109375 -45.671875 49.835938 -44.984375 49.515625 -44.296875 C 49.203125 -43.609375 48.835938 -42.921875 48.421875 -42.234375 C 47.890625 -41.222656 47.304688 -40.253906 46.671875 -39.328125 C 46.035156 -38.398438 45.375 -37.460938 44.6875 -36.515625 C 44.15625 -35.773438 43.625 -35.03125 43.09375 -34.28125 C 42.570312 -33.539062 42.019531 -32.800781 41.4375 -32.0625 C 41.113281 -31.644531 40.875 -31.222656 40.71875 -30.796875 C 40.03125 -28.523438 39.328125 -26.265625 38.609375 -24.015625 C 37.898438 -21.765625 37.226562 -19.5 36.59375 -17.21875 L 35.40625 -13.421875 C 35.351562 -13.203125 35.3125 -13 35.28125 -12.8125 C 35.257812 -12.632812 35.191406 -12.460938 35.078125 -12.296875 C 35.347656 -12.242188 35.535156 -12.269531 35.640625 -12.375 C 35.742188 -12.488281 35.820312 -12.570312 35.875 -12.625 C 36.832031 -13.363281 37.757812 -14.101562 38.65625 -14.84375 C 39.550781 -15.582031 40.476562 -16.296875 41.4375 -16.984375 C 42.914062 -18.097656 44.394531 -19.195312 45.875 -20.28125 C 47.351562 -21.363281 48.890625 -22.382812 50.484375 -23.34375 C 51.484375 -23.96875 52.523438 -24.546875 53.609375 -25.078125 C 54.703125 -25.609375 55.75 -26.140625 56.75 -26.671875 C 57.070312 -26.773438 57.3125 -26.773438 57.46875 -26.671875 C 57.78125 -26.566406 57.992188 -26.429688 58.109375 -26.265625 Z M 42.703125 -36.59375 C 42.703125 -36.539062 42.6875 -36.472656 42.65625 -36.390625 C 42.632812 -36.316406 42.648438 -36.222656 42.703125 -36.109375 L 42.859375 -36.109375 C 42.960938 -36.273438 43.082031 -36.4375 43.21875 -36.59375 C 43.351562 -36.75 43.445312 -36.90625 43.5 -37.0625 C 44.394531 -38.28125 45.226562 -39.484375 46 -40.671875 C 46.769531 -41.867188 47.46875 -43.101562 48.09375 -44.375 C 48.363281 -44.90625 48.601562 -45.429688 48.8125 -45.953125 C 49.03125 -46.484375 49.191406 -47.015625 49.296875 -47.546875 C 49.296875 -47.648438 49.320312 -47.753906 49.375 -47.859375 L 49.296875 -47.9375 C 49.242188 -47.9375 49.203125 -47.9375 49.171875 -47.9375 C 49.148438 -47.9375 49.109375 -47.9375 49.046875 -47.9375 L 48.5 -47.46875 C 47.601562 -46.457031 46.78125 -45.316406 46.03125 -44.046875 C 45.34375 -42.890625 44.734375 -41.675781 44.203125 -40.40625 C 43.679688 -39.132812 43.179688 -37.863281 42.703125 -36.59375 Z M 37.703125 -27.390625 C 37.753906 -27.335938 37.78125 -27.320312 37.78125 -27.34375 C 37.78125 -27.375 37.78125 -27.390625 37.78125 -27.390625 C 37.78125 -27.390625 37.765625 -27.398438 37.734375 -27.421875 C 37.710938 -27.453125 37.703125 -27.441406 37.703125 -27.390625 Z M 31.28125 -6.34375 C 31.382812 -6.613281 31.410156 -6.800781 31.359375 -6.90625 C 31.140625 -6.90625 30.925781 -6.800781 30.71875 -6.59375 L 28.8125 -4.921875 C 27.488281 -3.753906 26.191406 -2.585938 24.921875 -1.421875 C 23.648438 -0.265625 22.429688 1 21.265625 2.375 C 20.421875 3.332031 19.613281 4.3125 18.84375 5.3125 C 18.082031 6.320312 17.359375 7.382812 16.671875 8.5 C 16.140625 9.34375 15.769531 10.1875 15.5625 11.03125 C 15.394531 11.5625 15.3125 12.066406 15.3125 12.546875 C 15.375 13.390625 15.800781 13.734375 16.59375 13.578125 C 16.800781 13.523438 16.984375 13.46875 17.140625 13.40625 C 17.304688 13.351562 17.46875 13.300781 17.625 13.25 C 18.84375 12.832031 19.898438 12.28125 20.796875 11.59375 C 21.859375 10.789062 22.8125 9.882812 23.65625 8.875 C 24.5 7.875 25.265625 6.796875 25.953125 5.640625 C 27.066406 3.734375 28.046875 1.773438 28.890625 -0.234375 C 29.734375 -2.242188 30.53125 -4.28125 31.28125 -6.34375 Z M 31.28125 -6.34375 "/></g></g></g><g fill="#000000" fill-opacity="1"><g transform="translate(242.733639, 226.657591)"><g><path d="M 11.109375 -19.453125 C 10.578125 -19.078125 10.070312 -18.941406 9.59375 -19.046875 C 9.125 -19.148438 8.648438 -19.363281 8.171875 -19.6875 C 7.960938 -19.789062 7.78125 -20.082031 7.625 -20.5625 C 7.519531 -20.976562 7.46875 -21.410156 7.46875 -21.859375 C 7.46875 -22.316406 7.492188 -22.78125 7.546875 -23.25 C 7.703125 -24.207031 7.910156 -25.148438 8.171875 -26.078125 C 8.441406 -27.003906 8.757812 -27.914062 9.125 -28.8125 C 9.175781 -28.96875 9.242188 -29.125 9.328125 -29.28125 C 9.410156 -29.445312 9.394531 -29.609375 9.28125 -29.765625 C 9.125 -29.765625 9.019531 -29.710938 8.96875 -29.609375 C 8.914062 -29.503906 8.835938 -29.398438 8.734375 -29.296875 L 4.359375 -23.96875 C 4.097656 -23.65625 3.804688 -23.335938 3.484375 -23.015625 C 3.171875 -22.703125 2.882812 -22.382812 2.625 -22.0625 C 2.570312 -22.007812 2.488281 -21.957031 2.375 -21.90625 C 2.269531 -21.851562 2.164062 -21.773438 2.0625 -21.671875 C 1.375 -21.191406 0.765625 -21.242188 0.234375 -21.828125 C 0.078125 -21.984375 0 -22.171875 0 -22.390625 L 0.234375 -23.5 C 0.972656 -25.507812 2.0625 -27.226562 3.5 -28.65625 C 3.757812 -28.914062 4.046875 -29.128906 4.359375 -29.296875 C 4.785156 -29.660156 5.367188 -29.738281 6.109375 -29.53125 L 6.515625 -29.375 C 6.929688 -29.15625 7.207031 -29.085938 7.34375 -29.171875 C 7.476562 -29.253906 7.675781 -29.453125 7.9375 -29.765625 L 10.234375 -32.625 C 10.285156 -32.726562 10.394531 -32.859375 10.5625 -33.015625 C 10.875 -33.335938 11.21875 -33.390625 11.59375 -33.171875 C 11.851562 -33.015625 11.957031 -32.804688 11.90625 -32.546875 C 11.851562 -32.328125 11.800781 -32.125 11.75 -31.9375 C 11.695312 -31.757812 11.617188 -31.566406 11.515625 -31.359375 C 11.140625 -30.347656 10.765625 -29.363281 10.390625 -28.40625 C 10.023438 -27.457031 9.710938 -26.457031 9.453125 -25.40625 C 9.234375 -24.71875 9.054688 -24.039062 8.921875 -23.375 C 8.796875 -22.71875 8.757812 -22.015625 8.8125 -21.265625 C 8.8125 -21.054688 8.820312 -20.859375 8.84375 -20.671875 C 8.875 -20.492188 8.914062 -20.296875 8.96875 -20.078125 C 9.070312 -19.867188 9.234375 -19.789062 9.453125 -19.84375 C 9.710938 -19.894531 9.945312 -19.972656 10.15625 -20.078125 C 10.375 -20.179688 10.585938 -20.289062 10.796875 -20.40625 C 11.847656 -21.09375 12.828125 -21.882812 13.734375 -22.78125 C 14.148438 -23.207031 14.570312 -23.644531 15 -24.09375 C 15.425781 -24.539062 15.820312 -24.976562 16.1875 -25.40625 C 16.351562 -25.507812 16.5 -25.625 16.625 -25.75 C 16.757812 -25.882812 16.878906 -26.003906 16.984375 -26.109375 C 17.253906 -26.378906 17.519531 -26.429688 17.78125 -26.265625 C 18.144531 -26.109375 18.171875 -25.898438 17.859375 -25.640625 C 17.222656 -24.953125 16.585938 -24.265625 15.953125 -23.578125 C 15.316406 -22.890625 14.65625 -22.226562 13.96875 -21.59375 C 13.601562 -21.269531 13.257812 -20.960938 12.9375 -20.671875 C 12.625 -20.378906 12.253906 -20.101562 11.828125 -19.84375 Z M 1.515625 -22.546875 C 1.773438 -22.648438 1.984375 -22.789062 2.140625 -22.96875 C 2.296875 -23.15625 2.457031 -23.332031 2.625 -23.5 C 3.363281 -24.289062 4.0625 -25.09375 4.71875 -25.90625 C 5.382812 -26.726562 6.0625 -27.539062 6.75 -28.34375 C 7.007812 -28.707031 6.898438 -28.96875 6.421875 -29.125 C 6.109375 -29.175781 5.820312 -29.125 5.5625 -28.96875 C 5.34375 -28.914062 5.128906 -28.796875 4.921875 -28.609375 C 4.710938 -28.429688 4.523438 -28.257812 4.359375 -28.09375 C 3.148438 -26.664062 2.171875 -25 1.421875 -23.09375 C 1.316406 -22.9375 1.347656 -22.753906 1.515625 -22.546875 Z M 1.515625 -22.546875 "/></g></g></g><g fill="#000000" fill-opacity="1"><g transform="translate(258.451169, 226.657591)"><g><path d="M -0.796875 -4.921875 C -1.054688 -5.078125 -1.1875 -5.289062 -1.1875 -5.5625 C -1.1875 -5.769531 -1.171875 -5.953125 -1.140625 -6.109375 C -1.117188 -6.265625 -1.082031 -6.453125 -1.03125 -6.671875 C -0.875 -7.304688 -0.660156 -7.925781 -0.390625 -8.53125 C -0.128906 -9.144531 0.128906 -9.738281 0.390625 -10.3125 C 0.972656 -11.375 1.59375 -12.421875 2.25 -13.453125 C 2.914062 -14.484375 3.617188 -15.503906 4.359375 -16.515625 C 4.785156 -17.097656 5.023438 -17.675781 5.078125 -18.25 C 5.128906 -18.832031 5.164062 -19.425781 5.1875 -20.03125 C 5.21875 -20.644531 5.207031 -21.242188 5.15625 -21.828125 C 5.101562 -22.085938 5.050781 -22.363281 5 -22.65625 C 4.945312 -22.945312 4.84375 -23.226562 4.6875 -23.5 C 4.414062 -24.132812 3.988281 -24.554688 3.40625 -24.765625 C 3.09375 -24.816406 2.671875 -25.003906 2.140625 -25.328125 C 1.660156 -25.585938 1.503906 -25.984375 1.671875 -26.515625 L 1.75 -27.0625 C 2.0625 -27.800781 2.429688 -28.488281 2.859375 -29.125 C 3.285156 -29.757812 3.757812 -30.34375 4.28125 -30.875 C 4.445312 -31.03125 4.609375 -31.160156 4.765625 -31.265625 C 4.921875 -31.378906 5.078125 -31.488281 5.234375 -31.59375 C 5.453125 -31.695312 5.640625 -31.75 5.796875 -31.75 C 5.847656 -31.695312 5.910156 -31.671875 5.984375 -31.671875 C 6.066406 -31.671875 6.109375 -31.617188 6.109375 -31.515625 C 6.109375 -31.410156 6.054688 -31.300781 5.953125 -31.1875 C 5.316406 -30.664062 4.773438 -30.0625 4.328125 -29.375 C 3.878906 -28.6875 3.46875 -27.96875 3.09375 -27.21875 C 3.039062 -27.0625 2.988281 -26.890625 2.9375 -26.703125 C 2.882812 -26.523438 2.832031 -26.351562 2.78125 -26.1875 C 2.5625 -25.664062 2.71875 -25.320312 3.25 -25.15625 C 3.519531 -24.945312 3.8125 -24.816406 4.125 -24.765625 C 5.289062 -24.128906 5.953125 -23.148438 6.109375 -21.828125 C 6.210938 -21.453125 6.265625 -21.078125 6.265625 -20.703125 C 6.265625 -20.335938 6.289062 -19.972656 6.34375 -19.609375 C 6.34375 -19.453125 6.398438 -19.375 6.515625 -19.375 C 6.566406 -19.375 6.601562 -19.382812 6.625 -19.40625 C 6.65625 -19.4375 6.671875 -19.453125 6.671875 -19.453125 C 6.773438 -19.554688 6.851562 -19.632812 6.90625 -19.6875 C 6.957031 -19.738281 7.007812 -19.789062 7.0625 -19.84375 C 7.957031 -20.90625 8.910156 -21.9375 9.921875 -22.9375 C 10.929688 -23.945312 11.9375 -24.953125 12.9375 -25.953125 L 13.25 -26.1875 C 13.46875 -26.40625 13.679688 -26.429688 13.890625 -26.265625 C 14.316406 -26.054688 14.367188 -25.796875 14.046875 -25.484375 C 13.359375 -24.742188 12.628906 -23.988281 11.859375 -23.21875 C 11.097656 -22.445312 10.347656 -21.691406 9.609375 -20.953125 C 9.078125 -20.421875 8.585938 -19.890625 8.140625 -19.359375 C 7.691406 -18.835938 7.203125 -18.285156 6.671875 -17.703125 C 6.398438 -17.429688 6.210938 -16.976562 6.109375 -16.34375 C 5.898438 -14.394531 5.382812 -12.53125 4.5625 -10.75 C 3.738281 -8.976562 2.722656 -7.273438 1.515625 -5.640625 C 1.398438 -5.535156 1.316406 -5.425781 1.265625 -5.3125 C 0.898438 -4.945312 0.609375 -4.738281 0.390625 -4.6875 C 0.179688 -4.632812 -0.210938 -4.710938 -0.796875 -4.921875 Z M 0.234375 -6.59375 C 1.085938 -7.4375 1.960938 -8.8125 2.859375 -10.71875 C 3.117188 -11.25 3.367188 -11.773438 3.609375 -12.296875 C 3.847656 -12.828125 4.019531 -13.382812 4.125 -13.96875 C 3.96875 -13.96875 3.863281 -13.925781 3.8125 -13.84375 C 3.757812 -13.769531 3.707031 -13.707031 3.65625 -13.65625 C 3.125 -12.863281 2.632812 -12.066406 2.1875 -11.265625 C 1.738281 -10.472656 1.300781 -9.628906 0.875 -8.734375 C 0.769531 -8.460938 0.660156 -8.179688 0.546875 -7.890625 C 0.441406 -7.609375 0.335938 -7.332031 0.234375 -7.0625 C 0.128906 -6.851562 0.128906 -6.695312 0.234375 -6.59375 Z M 0.234375 -6.59375 "/></g></g></g><g fill="#000000" fill-opacity="1"><g transform="translate(270.437769, 226.657591)"><g><path d="M 1.59375 -19.375 C 1.0625 -19.53125 0.796875 -19.875 0.796875 -20.40625 C 0.691406 -21.457031 0.71875 -22.378906 0.875 -23.171875 C 1.03125 -24.441406 1.265625 -25.695312 1.578125 -26.9375 C 1.898438 -28.1875 2.25 -29.394531 2.625 -30.5625 C 2.675781 -30.769531 2.738281 -30.953125 2.8125 -31.109375 C 2.894531 -31.273438 2.960938 -31.460938 3.015625 -31.671875 C 3.117188 -31.878906 3.28125 -31.957031 3.5 -31.90625 C 3.707031 -31.800781 3.8125 -31.644531 3.8125 -31.4375 C 3.757812 -31.332031 3.734375 -31.210938 3.734375 -31.078125 C 3.734375 -30.941406 3.707031 -30.796875 3.65625 -30.640625 C 3.488281 -29.898438 3.3125 -29.144531 3.125 -28.375 C 2.945312 -27.601562 2.78125 -26.820312 2.625 -26.03125 C 2.457031 -25.1875 2.320312 -24.367188 2.21875 -23.578125 C 2.113281 -22.785156 2.035156 -21.960938 1.984375 -21.109375 C 1.984375 -20.953125 2.007812 -20.847656 2.0625 -20.796875 C 2.113281 -20.742188 2.21875 -20.796875 2.375 -20.953125 C 2.59375 -21.328125 2.789062 -21.671875 2.96875 -21.984375 C 3.15625 -22.304688 3.332031 -22.625 3.5 -22.9375 C 4.070312 -23.945312 4.625 -24.953125 5.15625 -25.953125 C 5.6875 -26.960938 6.21875 -27.96875 6.75 -28.96875 C 7.007812 -29.445312 7.269531 -29.921875 7.53125 -30.390625 C 7.800781 -30.867188 8.066406 -31.375 8.328125 -31.90625 C 8.441406 -32.113281 8.578125 -32.3125 8.734375 -32.5 C 8.890625 -32.6875 9.019531 -32.859375 9.125 -33.015625 C 9.65625 -33.753906 10.265625 -33.804688 10.953125 -33.171875 C 11.109375 -33.117188 11.1875 -32.960938 11.1875 -32.703125 C 11.1875 -32.378906 11.132812 -32.007812 11.03125 -31.59375 C 10.820312 -30.800781 10.609375 -30.019531 10.390625 -29.25 C 10.179688 -28.476562 9.972656 -27.722656 9.765625 -26.984375 C 9.710938 -26.773438 9.660156 -26.578125 9.609375 -26.390625 C 9.554688 -26.203125 9.554688 -26.03125 9.609375 -25.875 C 9.710938 -25.820312 9.816406 -25.847656 9.921875 -25.953125 C 10.234375 -26.273438 10.445312 -26.515625 10.5625 -26.671875 C 11.300781 -27.410156 12.066406 -27.4375 12.859375 -26.75 C 13.015625 -26.59375 13.09375 -26.460938 13.09375 -26.359375 C 13.195312 -26.140625 13.25 -25.953125 13.25 -25.796875 C 13.25 -25.640625 13.273438 -25.453125 13.328125 -25.234375 C 13.390625 -25.023438 13.445312 -24.785156 13.5 -24.515625 C 13.550781 -24.253906 13.628906 -23.992188 13.734375 -23.734375 C 13.941406 -23.046875 14.390625 -22.703125 15.078125 -22.703125 C 15.609375 -22.703125 16.140625 -22.832031 16.671875 -23.09375 C 17.835938 -23.519531 18.894531 -24.128906 19.84375 -24.921875 L 21.75 -26.359375 C 22.113281 -26.617188 22.429688 -26.644531 22.703125 -26.4375 C 22.910156 -26.269531 22.9375 -26.109375 22.78125 -25.953125 C 22.25 -25.367188 21.640625 -24.8125 20.953125 -24.28125 C 20.523438 -23.914062 20.0625 -23.585938 19.5625 -23.296875 C 19.0625 -23.003906 18.546875 -22.726562 18.015625 -22.46875 C 16.847656 -21.832031 15.628906 -21.804688 14.359375 -22.390625 C 13.515625 -22.804688 12.957031 -23.171875 12.6875 -23.484375 C 12.425781 -23.804688 12.21875 -24.421875 12.0625 -25.328125 L 12.0625 -25.875 C 12.007812 -25.925781 11.984375 -25.976562 11.984375 -26.03125 C 11.984375 -26.082031 11.929688 -26.109375 11.828125 -26.109375 C 11.722656 -26.109375 11.644531 -26.082031 11.59375 -26.03125 C 11.425781 -25.875 11.273438 -25.71875 11.140625 -25.5625 C 11.015625 -25.40625 10.875 -25.21875 10.71875 -25 C 10.5 -24.789062 10.3125 -24.578125 10.15625 -24.359375 C 10 -24.148438 9.816406 -23.941406 9.609375 -23.734375 C 9.441406 -23.472656 9.226562 -23.421875 8.96875 -23.578125 L 8.65625 -23.65625 C 8.28125 -23.863281 8.050781 -24.019531 7.96875 -24.125 C 7.894531 -24.226562 7.882812 -24.492188 7.9375 -24.921875 C 7.9375 -25.398438 8 -25.875 8.125 -26.34375 C 8.257812 -26.820312 8.382812 -27.300781 8.5 -27.78125 C 8.601562 -28.207031 8.707031 -28.617188 8.8125 -29.015625 C 8.914062 -29.410156 9.019531 -29.789062 9.125 -30.15625 C 9.175781 -30.320312 9.226562 -30.492188 9.28125 -30.671875 C 9.332031 -30.859375 9.390625 -31.03125 9.453125 -31.1875 C 9.234375 -31.1875 9.097656 -31.132812 9.046875 -31.03125 C 8.992188 -30.925781 8.914062 -30.820312 8.8125 -30.71875 L 6.828125 -27.140625 C 6.296875 -26.191406 5.789062 -25.253906 5.3125 -24.328125 C 4.84375 -23.398438 4.34375 -22.460938 3.8125 -21.515625 C 3.488281 -20.929688 3.117188 -20.320312 2.703125 -19.6875 C 2.378906 -19.3125 2.007812 -19.207031 1.59375 -19.375 Z M 1.59375 -19.375 "/></g></g></g><g fill="#000000" fill-opacity="1"><g transform="translate(290.918184, 226.657591)"><g><path d="M 5 -32.9375 C 4.570312 -33.09375 4.359375 -33.359375 4.359375 -33.734375 C 4.523438 -34.265625 4.738281 -34.6875 5 -35 C 5.101562 -35.21875 5.289062 -35.269531 5.5625 -35.15625 C 5.613281 -35.15625 5.691406 -35.101562 5.796875 -35 C 5.742188 -34.945312 5.71875 -34.867188 5.71875 -34.765625 C 5.445312 -34.503906 5.394531 -34.238281 5.5625 -33.96875 C 5.664062 -33.8125 5.664062 -33.65625 5.5625 -33.5 C 5.507812 -33.125 5.320312 -32.9375 5 -32.9375 Z M 4.28125 -19.375 C 3.539062 -19.101562 2.722656 -19.179688 1.828125 -19.609375 C 1.347656 -19.867188 1.054688 -20.289062 0.953125 -20.875 L 0.796875 -21.984375 C 0.953125 -24.148438 1.503906 -26.1875 2.453125 -28.09375 C 2.671875 -28.414062 2.859375 -28.65625 3.015625 -28.8125 C 3.117188 -28.914062 3.265625 -28.941406 3.453125 -28.890625 C 3.640625 -28.835938 3.757812 -28.757812 3.8125 -28.65625 C 3.8125 -28.601562 3.820312 -28.550781 3.84375 -28.5 C 3.875 -28.445312 3.863281 -28.394531 3.8125 -28.34375 C 3.175781 -27.332031 2.75 -26.285156 2.53125 -25.203125 C 2.320312 -24.117188 2.164062 -23.019531 2.0625 -21.90625 C 1.957031 -21.269531 1.984375 -20.710938 2.140625 -20.234375 C 2.296875 -19.972656 2.507812 -19.84375 2.78125 -19.84375 C 3.039062 -19.84375 3.289062 -19.894531 3.53125 -20 C 3.769531 -20.101562 3.992188 -20.179688 4.203125 -20.234375 C 4.679688 -20.503906 5.15625 -20.785156 5.625 -21.078125 C 6.101562 -21.367188 6.582031 -21.671875 7.0625 -21.984375 C 7.957031 -22.671875 8.851562 -23.367188 9.75 -24.078125 C 10.65625 -24.796875 11.5625 -25.5 12.46875 -26.1875 C 12.625 -26.351562 12.753906 -26.460938 12.859375 -26.515625 C 13.171875 -26.828125 13.539062 -26.800781 13.96875 -26.4375 C 14.019531 -26.4375 14.054688 -26.40625 14.078125 -26.34375 C 14.109375 -26.289062 14.097656 -26.238281 14.046875 -26.1875 L 13.734375 -25.875 C 12.566406 -24.875 11.375 -23.910156 10.15625 -22.984375 C 8.9375 -22.054688 7.664062 -21.195312 6.34375 -20.40625 C 6.03125 -20.1875 5.703125 -19.984375 5.359375 -19.796875 C 5.015625 -19.617188 4.65625 -19.476562 4.28125 -19.375 Z M 4.28125 -19.375 "/></g></g></g><g fill="#000000" fill-opacity="1"><g transform="translate(302.587262, 226.657591)"><g><path d="M 1.59375 -19.375 C 1.0625 -19.53125 0.796875 -19.875 0.796875 -20.40625 C 0.691406 -21.457031 0.71875 -22.378906 0.875 -23.171875 C 1.03125 -24.441406 1.265625 -25.695312 1.578125 -26.9375 C 1.898438 -28.1875 2.25 -29.394531 2.625 -30.5625 C 2.675781 -30.769531 2.738281 -30.953125 2.8125 -31.109375 C 2.894531 -31.273438 2.960938 -31.460938 3.015625 -31.671875 C 3.117188 -31.878906 3.28125 -31.957031 3.5 -31.90625 C 3.707031 -31.800781 3.8125 -31.644531 3.8125 -31.4375 C 3.757812 -31.332031 3.734375 -31.210938 3.734375 -31.078125 C 3.734375 -30.941406 3.707031 -30.796875 3.65625 -30.640625 C 3.488281 -29.898438 3.3125 -29.144531 3.125 -28.375 C 2.945312 -27.601562 2.78125 -26.820312 2.625 -26.03125 C 2.457031 -25.1875 2.320312 -24.367188 2.21875 -23.578125 C 2.113281 -22.785156 2.035156 -21.960938 1.984375 -21.109375 C 1.984375 -20.953125 2.007812 -20.847656 2.0625 -20.796875 C 2.113281 -20.742188 2.21875 -20.796875 2.375 -20.953125 C 2.59375 -21.328125 2.789062 -21.671875 2.96875 -21.984375 C 3.15625 -22.304688 3.332031 -22.625 3.5 -22.9375 C 4.070312 -23.945312 4.625 -24.953125 5.15625 -25.953125 C 5.6875 -26.960938 6.21875 -27.96875 6.75 -28.96875 C 7.007812 -29.445312 7.269531 -29.921875 7.53125 -30.390625 C 7.800781 -30.867188 8.066406 -31.375 8.328125 -31.90625 C 8.441406 -32.113281 8.578125 -32.3125 8.734375 -32.5 C 8.890625 -32.6875 9.019531 -32.859375 9.125 -33.015625 C 9.65625 -33.753906 10.265625 -33.804688 10.953125 -33.171875 C 11.109375 -33.117188 11.1875 -32.960938 11.1875 -32.703125 C 11.1875 -32.378906 11.132812 -32.007812 11.03125 -31.59375 C 10.820312 -30.800781 10.609375 -30.019531 10.390625 -29.25 C 10.179688 -28.476562 9.972656 -27.722656 9.765625 -26.984375 C 9.710938 -26.773438 9.660156 -26.578125 9.609375 -26.390625 C 9.554688 -26.203125 9.554688 -26.03125 9.609375 -25.875 C 9.710938 -25.820312 9.816406 -25.847656 9.921875 -25.953125 C 10.234375 -26.273438 10.445312 -26.515625 10.5625 -26.671875 C 11.300781 -27.410156 12.066406 -27.4375 12.859375 -26.75 C 13.015625 -26.59375 13.09375 -26.460938 13.09375 -26.359375 C 13.195312 -26.140625 13.25 -25.953125 13.25 -25.796875 C 13.25 -25.640625 13.273438 -25.453125 13.328125 -25.234375 C 13.390625 -25.023438 13.445312 -24.785156 13.5 -24.515625 C 13.550781 -24.253906 13.628906 -23.992188 13.734375 -23.734375 C 13.941406 -23.046875 14.390625 -22.703125 15.078125 -22.703125 C 15.609375 -22.703125 16.140625 -22.832031 16.671875 -23.09375 C 17.835938 -23.519531 18.894531 -24.128906 19.84375 -24.921875 L 21.75 -26.359375 C 22.113281 -26.617188 22.429688 -26.644531 22.703125 -26.4375 C 22.910156 -26.269531 22.9375 -26.109375 22.78125 -25.953125 C 22.25 -25.367188 21.640625 -24.8125 20.953125 -24.28125 C 20.523438 -23.914062 20.0625 -23.585938 19.5625 -23.296875 C 19.0625 -23.003906 18.546875 -22.726562 18.015625 -22.46875 C 16.847656 -21.832031 15.628906 -21.804688 14.359375 -22.390625 C 13.515625 -22.804688 12.957031 -23.171875 12.6875 -23.484375 C 12.425781 -23.804688 12.21875 -24.421875 12.0625 -25.328125 L 12.0625 -25.875 C 12.007812 -25.925781 11.984375 -25.976562 11.984375 -26.03125 C 11.984375 -26.082031 11.929688 -26.109375 11.828125 -26.109375 C 11.722656 -26.109375 11.644531 -26.082031 11.59375 -26.03125 C 11.425781 -25.875 11.273438 -25.71875 11.140625 -25.5625 C 11.015625 -25.40625 10.875 -25.21875 10.71875 -25 C 10.5 -24.789062 10.3125 -24.578125 10.15625 -24.359375 C 10 -24.148438 9.816406 -23.941406 9.609375 -23.734375 C 9.441406 -23.472656 9.226562 -23.421875 8.96875 -23.578125 L 8.65625 -23.65625 C 8.28125 -23.863281 8.050781 -24.019531 7.96875 -24.125 C 7.894531 -24.226562 7.882812 -24.492188 7.9375 -24.921875 C 7.9375 -25.398438 8 -25.875 8.125 -26.34375 C 8.257812 -26.820312 8.382812 -27.300781 8.5 -27.78125 C 8.601562 -28.207031 8.707031 -28.617188 8.8125 -29.015625 C 8.914062 -29.410156 9.019531 -29.789062 9.125 -30.15625 C 9.175781 -30.320312 9.226562 -30.492188 9.28125 -30.671875 C 9.332031 -30.859375 9.390625 -31.03125 9.453125 -31.1875 C 9.234375 -31.1875 9.097656 -31.132812 9.046875 -31.03125 C 8.992188 -30.925781 8.914062 -30.820312 8.8125 -30.71875 L 6.828125 -27.140625 C 6.296875 -26.191406 5.789062 -25.253906 5.3125 -24.328125 C 4.84375 -23.398438 4.34375 -22.460938 3.8125 -21.515625 C 3.488281 -20.929688 3.117188 -20.320312 2.703125 -19.6875 C 2.378906 -19.3125 2.007812 -19.207031 1.59375 -19.375 Z M 1.59375 -19.375 "/></g></g></g><g fill="#bf8789" fill-opacity="1"><g transform="translate(112.802384, 255.07485)"><g><path d="M 6.421875 -7.421875 C 6.597656 -7.421875 6.738281 -7.363281 6.84375 -7.25 C 6.945312 -7.144531 7 -7.003906 7 -6.828125 L 7 -0.640625 C 7 -0.460938 6.9375 -0.3125 6.8125 -0.1875 C 6.6875 -0.0625 6.535156 0 6.359375 0 C 6.253906 0 6.15625 -0.015625 6.0625 -0.046875 C 5.96875 -0.078125 5.898438 -0.125 5.859375 -0.1875 L 1.96875 -5.125 L 1.96875 -0.59375 C 1.96875 -0.425781 1.910156 -0.285156 1.796875 -0.171875 C 1.691406 -0.0546875 1.550781 0 1.375 0 C 1.195312 0 1.054688 -0.0546875 0.953125 -0.171875 C 0.847656 -0.285156 0.796875 -0.425781 0.796875 -0.59375 L 0.796875 -6.78125 C 0.796875 -6.96875 0.859375 -7.117188 0.984375 -7.234375 C 1.109375 -7.359375 1.257812 -7.421875 1.4375 -7.421875 C 1.550781 -7.421875 1.65625 -7.398438 1.75 -7.359375 C 1.851562 -7.316406 1.929688 -7.257812 1.984375 -7.1875 L 5.84375 -2.265625 L 5.84375 -6.828125 C 5.84375 -7.003906 5.894531 -7.144531 6 -7.25 C 6.113281 -7.363281 6.253906 -7.421875 6.421875 -7.421875 Z M 6.421875 -7.421875 "/></g></g></g><g fill="#bf8789" fill-opacity="1"><g transform="translate(129.085495, 255.07485)"><g><path d="M 6.625 -0.828125 C 6.65625 -0.734375 6.671875 -0.648438 6.671875 -0.578125 C 6.671875 -0.390625 6.609375 -0.238281 6.484375 -0.125 C 6.367188 -0.0078125 6.234375 0.046875 6.078125 0.046875 C 5.953125 0.046875 5.835938 0.0078125 5.734375 -0.0625 C 5.628906 -0.144531 5.550781 -0.25 5.5 -0.375 L 4.9375 -1.671875 L 1.78125 -1.671875 L 1.234375 -0.375 C 1.179688 -0.238281 1.101562 -0.132812 1 -0.0625 C 0.894531 0.0078125 0.785156 0.046875 0.671875 0.046875 C 0.484375 0.046875 0.34375 0 0.25 -0.09375 C 0.15625 -0.195312 0.109375 -0.332031 0.109375 -0.5 C 0.109375 -0.5625 0.117188 -0.628906 0.140625 -0.703125 L 2.78125 -7.046875 C 2.832031 -7.179688 2.914062 -7.285156 3.03125 -7.359375 C 3.144531 -7.441406 3.273438 -7.476562 3.421875 -7.46875 C 3.546875 -7.46875 3.660156 -7.429688 3.765625 -7.359375 C 3.878906 -7.285156 3.960938 -7.179688 4.015625 -7.046875 Z M 2.296875 -2.890625 L 4.421875 -2.890625 L 3.359375 -5.375 Z M 2.296875 -2.890625 "/></g></g></g><g fill="#bf8789" fill-opacity="1"><g transform="translate(144.350425, 255.07485)"><g><path d="M 2.125 -0.640625 C 2.125 -0.460938 2.054688 -0.3125 1.921875 -0.1875 C 1.785156 -0.0625 1.628906 0 1.453125 0 C 1.265625 0 1.109375 -0.0625 0.984375 -0.1875 C 0.859375 -0.3125 0.796875 -0.460938 0.796875 -0.640625 L 0.796875 -6.78125 C 0.796875 -6.96875 0.859375 -7.117188 0.984375 -7.234375 C 1.109375 -7.359375 1.269531 -7.421875 1.46875 -7.421875 C 1.644531 -7.421875 1.796875 -7.359375 1.921875 -7.234375 C 2.054688 -7.117188 2.125 -6.96875 2.125 -6.78125 Z M 2.125 -0.640625 "/></g></g></g><g fill="#bf8789" fill-opacity="1"><g transform="translate(155.754733, 255.07485)"><g><path d="M 4.890625 -1.234375 C 5.078125 -1.234375 5.226562 -1.175781 5.34375 -1.0625 C 5.46875 -0.945312 5.53125 -0.796875 5.53125 -0.609375 C 5.53125 -0.429688 5.46875 -0.285156 5.34375 -0.171875 C 5.226562 -0.0546875 5.078125 0 4.890625 0 L 1.4375 0 C 1.257812 0 1.109375 -0.0625 0.984375 -0.1875 C 0.859375 -0.3125 0.796875 -0.460938 0.796875 -0.640625 L 0.796875 -6.78125 C 0.796875 -6.96875 0.859375 -7.117188 0.984375 -7.234375 C 1.109375 -7.359375 1.269531 -7.421875 1.46875 -7.421875 C 1.644531 -7.421875 1.796875 -7.359375 1.921875 -7.234375 C 2.054688 -7.117188 2.125 -6.96875 2.125 -6.78125 L 2.125 -1.234375 Z M 4.890625 -1.234375 "/></g></g></g><g fill="#bf8789" fill-opacity="1"><g transform="translate(170.202994, 255.07485)"><g/></g></g><g fill="#bf8789" fill-opacity="1"><g transform="translate(181.660332, 255.07485)"><g><path d="M 3.984375 -7.421875 C 4.640625 -7.421875 5.207031 -7.253906 5.6875 -6.921875 C 6.164062 -6.597656 6.53125 -6.15625 6.78125 -5.59375 C 7.03125 -5.03125 7.15625 -4.40625 7.15625 -3.71875 C 7.15625 -3.019531 7.03125 -2.390625 6.78125 -1.828125 C 6.53125 -1.265625 6.164062 -0.816406 5.6875 -0.484375 C 5.207031 -0.160156 4.640625 0 3.984375 0 L 1.4375 0 C 1.257812 0 1.109375 -0.0625 0.984375 -0.1875 C 0.859375 -0.3125 0.796875 -0.460938 0.796875 -0.640625 L 0.796875 -6.78125 C 0.796875 -6.96875 0.859375 -7.117188 0.984375 -7.234375 C 1.109375 -7.359375 1.257812 -7.421875 1.4375 -7.421875 Z M 3.875 -1.21875 C 4.507812 -1.21875 4.984375 -1.453125 5.296875 -1.921875 C 5.617188 -2.390625 5.78125 -2.988281 5.78125 -3.71875 C 5.78125 -4.4375 5.617188 -5.03125 5.296875 -5.5 C 4.972656 -5.96875 4.5 -6.203125 3.875 -6.203125 L 2.125 -6.203125 L 2.125 -1.21875 Z M 3.875 -1.21875 "/></g></g></g><g fill="#bf8789" fill-opacity="1"><g transform="translate(197.731323, 255.07485)"><g><path d="M 5 -1.21875 C 5.175781 -1.21875 5.328125 -1.15625 5.453125 -1.03125 C 5.578125 -0.90625 5.640625 -0.765625 5.640625 -0.609375 C 5.640625 -0.429688 5.578125 -0.285156 5.453125 -0.171875 C 5.328125 -0.0546875 5.175781 0 5 0 L 1.4375 0 C 1.257812 0 1.109375 -0.0625 0.984375 -0.1875 C 0.859375 -0.3125 0.796875 -0.460938 0.796875 -0.640625 L 0.796875 -6.78125 C 0.796875 -6.96875 0.859375 -7.117188 0.984375 -7.234375 C 1.109375 -7.359375 1.257812 -7.421875 1.4375 -7.421875 L 5 -7.421875 C 5.175781 -7.421875 5.328125 -7.363281 5.453125 -7.25 C 5.578125 -7.132812 5.640625 -6.984375 5.640625 -6.796875 C 5.640625 -6.617188 5.578125 -6.472656 5.453125 -6.359375 C 5.335938 -6.253906 5.1875 -6.203125 5 -6.203125 L 2.125 -6.203125 L 2.125 -4.40625 L 4.515625 -4.40625 C 4.703125 -4.40625 4.859375 -4.34375 4.984375 -4.21875 C 5.109375 -4.101562 5.171875 -3.957031 5.171875 -3.78125 C 5.171875 -3.601562 5.109375 -3.457031 4.984375 -3.34375 C 4.867188 -3.238281 4.710938 -3.1875 4.515625 -3.1875 L 2.125 -3.1875 L 2.125 -1.21875 Z M 5 -1.21875 "/></g></g></g><g fill="#bf8789" fill-opacity="1"><g transform="translate(212.285645, 255.07485)"><g><path d="M 3.1875 0.109375 C 2.675781 0.109375 2.222656 0.046875 1.828125 -0.078125 C 1.429688 -0.210938 1.054688 -0.429688 0.703125 -0.734375 C 0.515625 -0.898438 0.421875 -1.085938 0.421875 -1.296875 C 0.421875 -1.453125 0.476562 -1.59375 0.59375 -1.71875 C 0.71875 -1.84375 0.867188 -1.90625 1.046875 -1.90625 C 1.171875 -1.90625 1.289062 -1.863281 1.40625 -1.78125 C 1.6875 -1.550781 1.957031 -1.378906 2.21875 -1.265625 C 2.488281 -1.160156 2.8125 -1.109375 3.1875 -1.109375 C 3.582031 -1.109375 3.921875 -1.195312 4.203125 -1.375 C 4.492188 -1.550781 4.640625 -1.769531 4.640625 -2.03125 C 4.640625 -2.351562 4.492188 -2.601562 4.203125 -2.78125 C 3.921875 -2.96875 3.472656 -3.101562 2.859375 -3.1875 C 1.316406 -3.414062 0.546875 -4.140625 0.546875 -5.359375 C 0.546875 -5.804688 0.660156 -6.191406 0.890625 -6.515625 C 1.117188 -6.847656 1.4375 -7.097656 1.84375 -7.265625 C 2.25 -7.441406 2.695312 -7.53125 3.1875 -7.53125 C 3.632812 -7.53125 4.054688 -7.460938 4.453125 -7.328125 C 4.847656 -7.191406 5.175781 -7.015625 5.4375 -6.796875 C 5.632812 -6.640625 5.734375 -6.453125 5.734375 -6.234375 C 5.734375 -6.078125 5.671875 -5.9375 5.546875 -5.8125 C 5.429688 -5.6875 5.296875 -5.625 5.140625 -5.625 C 5.023438 -5.625 4.925781 -5.65625 4.84375 -5.71875 C 4.664062 -5.863281 4.410156 -6 4.078125 -6.125 C 3.753906 -6.25 3.457031 -6.3125 3.1875 -6.3125 C 2.75 -6.3125 2.40625 -6.226562 2.15625 -6.0625 C 1.914062 -5.894531 1.796875 -5.675781 1.796875 -5.40625 C 1.796875 -5.101562 1.921875 -4.875 2.171875 -4.71875 C 2.421875 -4.5625 2.816406 -4.4375 3.359375 -4.34375 C 3.960938 -4.238281 4.445312 -4.101562 4.8125 -3.9375 C 5.175781 -3.769531 5.445312 -3.539062 5.625 -3.25 C 5.8125 -2.96875 5.90625 -2.585938 5.90625 -2.109375 C 5.90625 -1.660156 5.78125 -1.269531 5.53125 -0.9375 C 5.28125 -0.601562 4.945312 -0.34375 4.53125 -0.15625 C 4.113281 0.0195312 3.664062 0.109375 3.1875 0.109375 Z M 3.1875 0.109375 "/></g></g></g><g fill="#bf8789" fill-opacity="1"><g transform="translate(227.105116, 255.07485)"><g><path d="M 2.125 -0.640625 C 2.125 -0.460938 2.054688 -0.3125 1.921875 -0.1875 C 1.785156 -0.0625 1.628906 0 1.453125 0 C 1.265625 0 1.109375 -0.0625 0.984375 -0.1875 C 0.859375 -0.3125 0.796875 -0.460938 0.796875 -0.640625 L 0.796875 -6.78125 C 0.796875 -6.96875 0.859375 -7.117188 0.984375 -7.234375 C 1.109375 -7.359375 1.269531 -7.421875 1.46875 -7.421875 C 1.644531 -7.421875 1.796875 -7.359375 1.921875 -7.234375 C 2.054688 -7.117188 2.125 -6.96875 2.125 -6.78125 Z M 2.125 -0.640625 "/></g></g></g><g fill="#bf8789" fill-opacity="1"><g transform="translate(238.509428, 255.07485)"><g><path d="M 6.265625 -4.015625 C 6.453125 -4.015625 6.601562 -3.953125 6.71875 -3.828125 C 6.84375 -3.703125 6.90625 -3.546875 6.90625 -3.359375 L 6.90625 -1.109375 C 6.90625 -0.867188 6.796875 -0.679688 6.578125 -0.546875 C 5.878906 -0.109375 5.117188 0.109375 4.296875 0.109375 C 3.597656 0.109375 2.953125 -0.0625 2.359375 -0.40625 C 1.765625 -0.75 1.289062 -1.210938 0.9375 -1.796875 C 0.59375 -2.378906 0.421875 -3.019531 0.421875 -3.71875 C 0.421875 -4.40625 0.59375 -5.039062 0.9375 -5.625 C 1.289062 -6.207031 1.765625 -6.671875 2.359375 -7.015625 C 2.953125 -7.359375 3.597656 -7.53125 4.296875 -7.53125 C 4.992188 -7.53125 5.601562 -7.390625 6.125 -7.109375 C 6.226562 -7.046875 6.304688 -6.96875 6.359375 -6.875 C 6.410156 -6.789062 6.4375 -6.695312 6.4375 -6.59375 C 6.4375 -6.414062 6.378906 -6.257812 6.265625 -6.125 C 6.148438 -6 6.003906 -5.9375 5.828125 -5.9375 C 5.722656 -5.9375 5.609375 -5.960938 5.484375 -6.015625 C 5.097656 -6.179688 4.703125 -6.265625 4.296875 -6.265625 C 3.847656 -6.265625 3.429688 -6.144531 3.046875 -5.90625 C 2.660156 -5.675781 2.351562 -5.367188 2.125 -4.984375 C 1.90625 -4.597656 1.796875 -4.175781 1.796875 -3.71875 C 1.796875 -3.257812 1.90625 -2.832031 2.125 -2.4375 C 2.351562 -2.050781 2.660156 -1.742188 3.046875 -1.515625 C 3.429688 -1.285156 3.847656 -1.171875 4.296875 -1.171875 C 4.492188 -1.171875 4.703125 -1.1875 4.921875 -1.21875 C 5.148438 -1.25 5.351562 -1.296875 5.53125 -1.359375 L 5.53125 -2.734375 L 4.53125 -2.734375 C 4.34375 -2.734375 4.1875 -2.789062 4.0625 -2.90625 C 3.945312 -3.03125 3.890625 -3.1875 3.890625 -3.375 C 3.890625 -3.5625 3.945312 -3.710938 4.0625 -3.828125 C 4.1875 -3.953125 4.34375 -4.015625 4.53125 -4.015625 Z M 6.265625 -4.015625 "/></g></g></g><g fill="#bf8789" fill-opacity="1"><g transform="translate(254.378909, 255.07485)"><g><path d="M 6.421875 -7.421875 C 6.597656 -7.421875 6.738281 -7.363281 6.84375 -7.25 C 6.945312 -7.144531 7 -7.003906 7 -6.828125 L 7 -0.640625 C 7 -0.460938 6.9375 -0.3125 6.8125 -0.1875 C 6.6875 -0.0625 6.535156 0 6.359375 0 C 6.253906 0 6.15625 -0.015625 6.0625 -0.046875 C 5.96875 -0.078125 5.898438 -0.125 5.859375 -0.1875 L 1.96875 -5.125 L 1.96875 -0.59375 C 1.96875 -0.425781 1.910156 -0.285156 1.796875 -0.171875 C 1.691406 -0.0546875 1.550781 0 1.375 0 C 1.195312 0 1.054688 -0.0546875 0.953125 -0.171875 C 0.847656 -0.285156 0.796875 -0.425781 0.796875 -0.59375 L 0.796875 -6.78125 C 0.796875 -6.96875 0.859375 -7.117188 0.984375 -7.234375 C 1.109375 -7.359375 1.257812 -7.421875 1.4375 -7.421875 C 1.550781 -7.421875 1.65625 -7.398438 1.75 -7.359375 C 1.851562 -7.316406 1.929688 -7.257812 1.984375 -7.1875 L 5.84375 -2.265625 L 5.84375 -6.828125 C 5.84375 -7.003906 5.894531 -7.144531 6 -7.25 C 6.113281 -7.363281 6.253906 -7.421875 6.421875 -7.421875 Z M 6.421875 -7.421875 "/></g></g></g><g clip-path="url(#ccfcdec8d0)"><path fill="#d4bbeb" d="M 161.21875 108.894531 C 159.886719 107.675781 158.433594 106.488281 156.902344 105.34375 C 151.523438 100.527344 144.777344 94.953125 137.613281 89.179688 C 121.527344 76.203125 100.542969 73.355469 100.773438 87.878906 C 100.929688 97.996094 108.597656 112.25 117.496094 121.257812 C 119.699219 124.746094 122.882812 128.289062 127.234375 131.722656 C 137.09375 139.507812 158.882812 144.695312 169.78125 138.730469 C 183.011719 131.484375 173.15625 119.789062 161.21875 108.894531 Z M 161.21875 108.894531 " fill-opacity="1" fill-rule="nonzero"/></g><g clip-path="url(#f2a8bbb2b2)"><path fill="#cca6ef" d="M 119.191406 96.441406 C 127.257812 89.988281 144.734375 96.230469 156.902344 105.34375 C 151.523438 100.527344 144.777344 94.953125 137.613281 89.179688 C 121.527344 76.203125 100.542969 73.355469 100.773438 87.878906 C 100.929688 97.996094 108.597656 112.25 117.496094 121.257812 C 111.042969 111.039062 113.074219 101.335938 119.191406 96.441406 Z M 119.191406 96.441406 " fill-opacity="1" fill-rule="nonzero"/></g><g clip-path="url(#06cc2243a0)"><path fill="#000000" d="M 193.410156 133.289062 C 189.386719 130.546875 185.273438 127.875 180.804688 125.851562 C 179.378906 125.214844 177.921875 124.644531 176.433594 124.164062 C 175.847656 122.460938 174.992188 120.878906 174.0625 119.382812 C 172.734375 117.277344 171.1875 115.34375 169.535156 113.511719 C 167.855469 111.703125 166.125 109.984375 164.339844 108.304688 C 160.765625 104.953125 157.039062 101.789062 153.203125 98.761719 C 149.367188 95.738281 145.4375 92.835938 141.433594 90.042969 C 137.425781 87.25 133.351562 84.5625 129.125 82.082031 C 127.019531 80.84375 124.761719 79.703125 122.375 78.984375 C 119.992188 78.261719 117.46875 77.871094 114.945312 78.058594 C 112.4375 78.238281 109.890625 79.058594 107.890625 80.707031 C 106.894531 81.527344 106.070312 82.554688 105.464844 83.691406 C 104.851562 84.824219 104.496094 86.074219 104.320312 87.332031 C 103.992188 89.816406 104.117188 92.328125 104.613281 94.769531 C 105.109375 97.207031 106.015625 99.527344 107.0625 101.746094 C 107.355469 102.363281 107.664062 102.96875 107.980469 103.570312 C 106.339844 105.253906 105.300781 107.457031 104.777344 109.699219 C 104.484375 110.921875 104.324219 112.160156 104.269531 113.410156 C 104.199219 114.660156 104.25 115.910156 104.386719 117.144531 C 104.648438 119.621094 105.273438 122.035156 106.078125 124.367188 C 107.726562 129.03125 110.121094 133.367188 112.851562 137.433594 C 115.589844 141.503906 118.648438 145.335938 121.902344 148.988281 C 123.527344 150.816406 125.191406 152.597656 126.953125 154.3125 C 128.707031 156.023438 130.5 157.675781 132.320312 159.300781 C 135.953125 162.5625 139.664062 165.71875 143.40625 168.835938 C 147.144531 171.960938 150.914062 175.042969 154.699219 178.113281 C 158.480469 181.1875 162.300781 184.207031 166.132812 187.214844 C 169.976562 190.210938 173.792969 193.230469 177.722656 196.117188 C 177.75 196.140625 177.789062 196.136719 177.8125 196.105469 C 177.835938 196.078125 177.832031 196.035156 177.804688 196.011719 L 177.800781 196.011719 C 170.117188 190.035156 162.652344 183.769531 155.144531 177.574219 C 147.664062 171.347656 140.230469 165.050781 133.007812 158.542969 C 131.199219 156.917969 129.421875 155.257812 127.699219 153.5625 C 125.976562 151.867188 124.328125 150.082031 122.726562 148.261719 C 119.519531 144.625 116.507812 140.8125 113.832031 136.785156 C 111.171875 132.753906 108.789062 128.515625 107.175781 123.988281 C 105.570312 119.488281 104.789062 114.589844 105.847656 109.953125 C 106.296875 107.953125 107.148438 106.03125 108.488281 104.519531 C 110.347656 107.910156 112.503906 111.117188 114.703125 114.269531 C 117.453125 118.324219 120.851562 121.929688 124.5625 125.105469 C 128.285156 128.273438 132.328125 131.074219 136.683594 133.3125 C 138.859375 134.421875 141.128906 135.390625 143.523438 135.976562 C 144.71875 136.261719 145.96875 136.433594 147.210938 136.324219 C 147.398438 136.3125 147.582031 136.289062 147.765625 136.261719 C 148.46875 136.632812 149.207031 136.921875 149.953125 137.160156 C 151.175781 137.519531 152.351562 137.777344 153.574219 138.011719 C 156 138.460938 158.480469 138.710938 160.96875 138.621094 C 163.476562 138.539062 165.925781 138.054688 168.308594 137.3125 C 170.671875 136.550781 173.035156 135.484375 174.898438 133.628906 C 175.8125 132.703125 176.570312 131.527344 176.898438 130.222656 C 177.25 128.925781 177.226562 127.574219 177.003906 126.308594 C 176.917969 125.847656 176.8125 125.394531 176.683594 124.949219 C 177.996094 125.375 179.289062 125.867188 180.550781 126.425781 C 184.976562 128.386719 189.136719 130.9375 193.195312 133.617188 C 197.25 136.304688 201.226562 139.117188 205.222656 141.898438 C 205.253906 141.917969 205.292969 141.914062 205.316406 141.882812 C 205.335938 141.851562 205.332031 141.8125 205.300781 141.789062 C 201.351562 138.9375 197.425781 136.054688 193.410156 133.289062 Z M 105.566406 94.574219 C 105.117188 92.242188 105.023438 89.824219 105.355469 87.480469 C 105.527344 86.332031 105.863281 85.207031 106.417969 84.203125 C 106.96875 83.199219 107.707031 82.296875 108.597656 81.578125 C 110.390625 80.128906 112.699219 79.394531 115.03125 79.253906 C 117.371094 79.089844 119.746094 79.460938 122.007812 80.160156 C 124.289062 80.863281 126.40625 81.9375 128.488281 83.175781 C 132.652344 85.644531 136.699219 88.34375 140.667969 91.136719 C 144.640625 93.933594 148.535156 96.835938 152.332031 99.859375 C 156.125 102.886719 159.847656 106.003906 163.382812 109.316406 C 165.148438 110.972656 166.875 112.683594 168.515625 114.4375 C 170.125 116.214844 171.628906 118.097656 172.902344 120.113281 C 173.621094 121.253906 174.28125 122.445312 174.792969 123.675781 C 174.480469 123.589844 174.167969 123.511719 173.851562 123.433594 C 171.460938 122.859375 169.007812 122.527344 166.546875 122.464844 C 164.085938 122.390625 161.632812 122.558594 159.199219 122.859375 C 156.984375 123.140625 154.78125 123.566406 152.636719 124.25 C 152.289062 123.308594 151.867188 122.398438 151.394531 121.523438 C 146.488281 113.046875 138.796875 106.175781 129.679688 102.488281 C 128.542969 102.027344 127.390625 101.597656 126.214844 101.238281 C 125.050781 100.851562 123.847656 100.542969 122.636719 100.3125 C 120.210938 99.855469 117.703125 99.691406 115.222656 100.066406 C 112.859375 100.414062 110.488281 101.320312 108.640625 102.941406 C 108.375 102.421875 108.117188 101.898438 107.875 101.367188 C 106.875 99.179688 106.019531 96.917969 105.566406 94.574219 Z M 143.628906 135.539062 C 141.289062 134.957031 139.046875 133.996094 136.894531 132.890625 C 132.589844 130.664062 128.605469 127.828125 124.949219 124.652344 C 121.300781 121.457031 117.996094 117.875 115.320312 113.835938 C 113.109375 110.597656 110.945312 107.3125 109.121094 103.863281 C 110.800781 102.261719 113.050781 101.339844 115.371094 100.96875 C 117.710938 100.582031 120.132812 100.703125 122.492188 101.117188 C 124.851562 101.53125 127.160156 102.292969 129.410156 103.15625 C 133.910156 104.921875 138.109375 107.445312 141.773438 110.609375 C 143.597656 112.195312 145.304688 113.925781 146.835938 115.804688 C 147.238281 116.257812 147.597656 116.746094 147.964844 117.226562 C 148.328125 117.710938 148.710938 118.183594 149.042969 118.6875 L 150.070312 120.1875 C 150.394531 120.699219 150.707031 121.214844 151 121.742188 C 151.46875 122.589844 151.882812 123.472656 152.222656 124.382812 C 152.148438 124.410156 152.070312 124.433594 151.996094 124.460938 C 150.824219 124.867188 149.671875 125.351562 148.585938 125.980469 C 147.496094 126.605469 146.457031 127.371094 145.628906 128.386719 C 144.800781 129.378906 144.230469 130.746094 144.398438 132.136719 C 144.542969 133.550781 145.484375 134.726562 146.519531 135.484375 C 146.714844 135.632812 146.921875 135.769531 147.128906 135.898438 C 145.957031 135.984375 144.777344 135.820312 143.628906 135.539062 Z M 147.160156 134.621094 C 146.25 133.964844 145.546875 133.054688 145.429688 132.007812 C 145.289062 130.957031 145.695312 129.882812 146.40625 129.007812 C 147.109375 128.121094 148.054688 127.402344 149.066406 126.808594 C 150.082031 126.207031 151.179688 125.730469 152.300781 125.324219 C 152.375 125.296875 152.449219 125.273438 152.523438 125.25 C 152.859375 126.324219 153.082031 127.433594 153.148438 128.558594 C 153.210938 129.746094 153.078125 130.957031 152.644531 132.058594 C 152.222656 133.164062 151.472656 134.132812 150.503906 134.800781 C 150 135.136719 149.449219 135.394531 148.867188 135.574219 C 148.257812 135.3125 147.679688 135 147.160156 134.621094 Z M 175.671875 126.546875 C 175.871094 127.671875 175.882812 128.816406 175.597656 129.875 C 175.332031 130.9375 174.730469 131.882812 173.945312 132.691406 C 172.34375 134.300781 170.140625 135.324219 167.90625 136.070312 C 165.648438 136.800781 163.28125 137.292969 160.917969 137.390625 C 158.539062 137.503906 156.140625 137.292969 153.78125 136.878906 C 152.609375 136.664062 151.402344 136.414062 150.285156 136.09375 C 150.007812 136.011719 149.730469 135.917969 149.460938 135.816406 C 149.910156 135.636719 150.339844 135.417969 150.742188 135.144531 C 151.777344 134.425781 152.578125 133.378906 153.019531 132.207031 C 153.472656 131.035156 153.617188 129.773438 153.5625 128.535156 C 153.5 127.363281 153.273438 126.21875 152.933594 125.109375 C 154.996094 124.433594 157.148438 123.992188 159.316406 123.691406 C 161.707031 123.371094 164.128906 123.179688 166.535156 123.234375 C 169.4375 123.273438 172.316406 123.707031 175.109375 124.476562 C 175.351562 125.15625 175.542969 125.84375 175.671875 126.546875 Z M 175.671875 126.546875 " fill-opacity="1" fill-rule="nonzero"/></g></svg>